<?xml version="1.0" encoding="UTF-8" standalone="no"?>
<svg
   id="mocno_git_kopia"
   data-name="mocno git kopia"
   viewBox="0 0 786.63 469.18"
   version="1.1"
   sodipodi:docname="landing-logo.svg"
   inkscape:version="1.2.1 (9c6d41e4, 2022-07-14)"
   xmlns:inkscape="http://www.inkscape.org/namespaces/inkscape"
   xmlns:sodipodi="http://sodipodi.sourceforge.net/DTD/sodipodi-0.dtd"
   xmlns="http://www.w3.org/2000/svg"
   xmlns:svg="http://www.w3.org/2000/svg">
  <sodipodi:namedview
     id="namedview197"
     pagecolor="#ffffff"
     bordercolor="#000000"
     borderopacity="0.25"
     inkscape:showpageshadow="2"
     inkscape:pageopacity="0.0"
     inkscape:pagecheckerboard="0"
     inkscape:deskcolor="#d1d1d1"
     showgrid="false"
     inkscape:zoom="0.61986862"
     inkscape:cx="352.49405"
     inkscape:cy="194.39603"
     inkscape:window-width="1280"
     inkscape:window-height="747"
     inkscape:window-x="0"
     inkscape:window-y="25"
     inkscape:window-maximized="0"
     inkscape:current-layer="mocno_git_kopia" />
  <defs
     id="defs142">
    <style
       id="style128">.cls-1{fill:none;}.cls-11,.cls-12,.cls-13,.cls-18,.cls-2,.cls-3,.cls-4,.cls-5,.cls-6{font-size:171px;stroke-width:1.42px;font-family:Junicode-BoldCondensed, Junicode;font-weight:700;}.cls-2{fill:#ef781a;}.cls-10,.cls-11,.cls-12,.cls-13,.cls-16,.cls-18,.cls-2,.cls-3,.cls-4,.cls-5,.cls-6,.cls-7,.cls-8,.cls-9{stroke:#1d1d1b;stroke-miterlimit:10;}.cls-3{fill:#f3ecd9;}.cls-4{fill:#7b90c8;}.cls-5{fill:#38bff0;}.cls-6{fill:#7c90c9;}.cls-7{fill:#67b430;}.cls-10,.cls-16,.cls-7,.cls-8,.cls-9{stroke-width:1.42px;}.cls-8{fill:#3abff0;}.cls-13,.cls-9{fill:#ec629c;}.cls-10{fill:#777466;}.cls-11{fill:#67b32e;}.cls-12{fill:#f3e600;}.cls-14{clip-path:url(#clip-path);}.cls-15{clip-path:url(#clip-path-2);}.cls-16{fill:#ef7a8a;}.cls-17{clip-path:url(#clip-path-3);}.cls-18{fill:#ef7a89;}.cls-19{clip-path:url(#clip-path-4);}</style>
    <clipPath
       id="clip-path-3"
       transform="translate(-23.13 -72.81)">
      <rect
         class="cls-1"
         x="355.91"
         y="300.72"
         width="52.02"
         height="91.03"
         id="rect136" />
    </clipPath>
  </defs>
  <g
     aria-label="S"
     transform="translate(196.8 197.94)"
     id="text144"
     class="cls-2"
     style="font-weight:700;font-size:171px;font-family:Junicode-BoldCondensed, Junicode;fill:#ef781a;stroke:#1d1d1b;stroke-width:1.42px;stroke-miterlimit:10">
    <path
       d="m 65.460937,-33.648926 q 0,15.112793 -7.26416,25.0488283 -7.932129,10.8544922 -21.208007,10.8544922 -9.602051,0 -16.448731,-3.00585934 L 10.937988,-5.9282227 Q 7.4311523,-19.287598 7.4311523,-32.0625 q 0,-2.003906 3.0893557,-2.170898 3.172851,-0.250489 3.339844,1.502929 0.667968,9.685547 6.011718,17.283692 7.013672,9.8525387 18.285645,9.8525387 4.759277,0 8.600097,-4.7592777 4.759278,-5.844726 4.759278,-15.363281 0,-17.200195 -18.035156,-22.961426 -26.5517582,-8.433105 -26.5517582,-37.573242 0,-11.856445 8.6000972,-21.541995 7.013672,-7.84863 19.538086,-7.84863 8.015625,0 14.194336,1.75342 3.757325,1.00195 4.174805,1.00195 l 2.421387,-0.16699 h 0.0835 q 2.421387,9.85254 3.256347,22.62744 0.0835,2.170899 -2.922363,2.755372 -3.089355,0.500976 -3.42334,-1.001954 -2.003906,-9.769043 -6.596191,-14.862308 -4.508789,-5.09326 -12.440918,-5.09326 -6.345703,0 -10.27002,7.01367 -2.671875,4.675785 -2.671875,11.856449 0,15.112793 16.448731,20.122559 28.138183,8.516601 28.138183,35.986816 z"
       id="path525" />
  </g>
  <g
     aria-label="k"
     transform="translate(269.26 197.94)"
     id="text146"
     class="cls-3"
     style="font-weight:700;font-size:171px;font-family:Junicode-BoldCondensed, Junicode;fill:#f3ecd9;stroke:#1d1d1b;stroke-width:1.42px;stroke-miterlimit:10">
    <path
       d="M 72.057129,0.66796875 Q 66.713379,0 56.777344,0 46.757812,0 41.163574,0.66796875 q -1.001953,0 -1.001953,-3.17285155 0,-3.1728516 1.001953,-3.1728516 4.92627,0 5.009766,-2.4213867 0,-1.3359375 -1.836914,-4.0078129 L 31.311035,-30.810059 q -1.669922,-2.504882 -3.924316,-2.504882 -1.168946,0 -1.168946,2.838867 v 18.536133 q 0,6.2622066 7.347657,6.2622066 1.001953,0 1.001953,3.1728516 0,3.17285155 -1.001953,3.17285155 Q 27.887695,0 19.204102,0 8.8505859,0 3.2563477,0.66796875 q -1.0019532,0 -1.0019532,-3.17285155 0,-3.1728516 1.0019532,-3.1728516 7.6816403,0 7.6816403,-5.9282226 v -85.333008 q -0.584472,-9.852535 -6.0952146,-10.437015 -1.0854492,0 -1.0854492,-3.00586 0,-3.17285 1.0854492,-3.17285 3.3398438,0 12.3574216,-5.59424 4.341797,-2.67187 5.677735,-4.1748 0.834961,-0.83496 1.92041,-0.83496 1.753418,0 1.836914,2.25439 -0.417481,7.26416 -0.417481,14.44483 v 63.373533 q 0,3.005859 1.419434,3.005859 2.922363,0 5.34375,-3.172852 l 10.27002,-14.194336 q 2.087402,-3.005859 2.087402,-4.508789 0,-2.504882 -5.510742,-2.504882 -1.08545,0 -1.08545,-2.922364 0,-3.089355 1.08545,-3.089355 4.007812,0.500976 14.444824,0.500976 9.351562,0 13.609863,-0.500976 1.001953,0 1.001953,3.005859 0,3.00586 -1.001953,3.00586 -7.013672,0 -12.190429,5.928222 l -13.943848,15.780762 q -0.751465,0.834961 -0.751465,1.586426 0,1.168945 0.751465,2.170898 l 21.959473,29.891602 q 3.172851,4.4252926 8.349609,4.4252926 1.085449,0 1.085449,3.0893555 0,3.25634765 -1.085449,3.25634765 z"
       id="path522" />
  </g>
  <g
     aria-label="n"
     transform="translate(381.79 308.7)"
     id="text148"
     class="cls-4"
     style="font-weight:700;font-size:171px;font-family:Junicode-BoldCondensed, Junicode;fill:#7b90c8;stroke:#1d1d1b;stroke-width:1.42px;stroke-miterlimit:10">
    <path
       d="M 71.38916,0.66796875 Q 64.291992,0 57.27832,0 50.264648,0 42.249023,0.66796875 41.24707,0.75146484 41.24707,-2.4213867 q 0,-3.2563477 1.001953,-3.2563477 6.763184,0 6.763184,-5.1767576 v -33.98291 q 0,-12.440918 -3.924316,-16.699219 -1.920411,-2.087402 -6.4292,-2.087402 -4.091308,0 -7.932129,4.174804 -4.508789,4.842774 -4.508789,10.019532 v 37.489746 q 0,6.2622066 6.679688,6.2622066 1.001953,0 1.001953,3.1728516 0,3.17285155 -1.001953,3.17285155 Q 27.219727,0 18.452637,0 9.4350586,0 3.8408203,0.66796875 q -1.0019531,0 -1.0019531,-3.17285155 0,-3.1728516 1.0019531,-3.1728516 7.0971677,0 7.0971677,-6.2622066 v -33.899414 q 0,-11.104981 -6.0952146,-11.104981 -1.0854492,0 -1.0854492,-3.005859 0,-3.172852 1.0854492,-3.172852 3.3398438,0 12.4409176,-5.677734 4.258301,-2.588379 5.594239,-4.007813 0.834961,-0.918457 1.753418,-0.918457 1.92041,0 2.003906,2.254395 l -0.417481,5.677734 q 0,1.586426 0.584473,1.586426 0.667969,0 1.252441,-0.751465 2.838868,-4.592285 9.184571,-6.763184 2.755371,-0.918457 6.345703,-0.918457 12.691406,0 18.369141,15.446778 2.33789,6.095215 2.33789,18.36914 v 27.470215 q 0,5.6777346 7.097168,5.6777346 1.085449,0 1.085449,3.1728516 0,3.17285155 -1.085449,3.17285155 z"
       id="path519" />
  </g>
  <g
     aria-label="S"
     transform="translate(0.71 309.7)"
     id="text150"
     class="cls-5"
     style="font-weight:700;font-size:171px;font-family:Junicode-BoldCondensed, Junicode;fill:#38bff0;stroke:#1d1d1b;stroke-width:1.42px;stroke-miterlimit:10">
    <path
       d="m 65.460937,-33.648926 q 0,15.112793 -7.26416,25.0488283 -7.932129,10.8544922 -21.208007,10.8544922 -9.602051,0 -16.448731,-3.00585934 L 10.937988,-5.9282227 Q 7.4311523,-19.287598 7.4311523,-32.0625 q 0,-2.003906 3.0893557,-2.170898 3.172851,-0.250489 3.339844,1.502929 0.667968,9.685547 6.011718,17.283692 7.013672,9.8525387 18.285645,9.8525387 4.759277,0 8.600097,-4.7592777 4.759278,-5.844726 4.759278,-15.363281 0,-17.200195 -18.035156,-22.961426 -26.5517582,-8.433105 -26.5517582,-37.573242 0,-11.856445 8.6000972,-21.541995 7.013672,-7.84863 19.538086,-7.84863 8.015625,0 14.194336,1.75342 3.757325,1.00195 4.174805,1.00195 l 2.421387,-0.16699 h 0.0835 q 2.421387,9.85254 3.256347,22.62744 0.0835,2.170899 -2.922363,2.755372 -3.089355,0.500976 -3.42334,-1.001954 -2.003906,-9.769043 -6.596191,-14.862308 -4.508789,-5.09326 -12.440918,-5.09326 -6.345703,0 -10.27002,7.01367 -2.671875,4.675785 -2.671875,11.856449 0,15.112793 16.448731,20.122559 28.138183,8.516601 28.138183,35.986816 z"
       id="path516" />
  </g>
  <g
     aria-label="k"
     transform="translate(73.17 309.7)"
     id="text152"
     class="cls-6"
     style="font-weight:700;font-size:171px;font-family:Junicode-BoldCondensed, Junicode;fill:#7c90c9;stroke:#1d1d1b;stroke-width:1.42px;stroke-miterlimit:10">
    <path
       d="M 72.057129,0.66796875 Q 66.713379,0 56.777344,0 46.757812,0 41.163574,0.66796875 q -1.001953,0 -1.001953,-3.17285155 0,-3.1728516 1.001953,-3.1728516 4.92627,0 5.009766,-2.4213867 0,-1.3359375 -1.836914,-4.0078129 L 31.311035,-30.810059 q -1.669922,-2.504882 -3.924316,-2.504882 -1.168946,0 -1.168946,2.838867 v 18.536133 q 0,6.2622066 7.347657,6.2622066 1.001953,0 1.001953,3.1728516 0,3.17285155 -1.001953,3.17285155 Q 27.887695,0 19.204102,0 8.8505859,0 3.2563477,0.66796875 q -1.0019532,0 -1.0019532,-3.17285155 0,-3.1728516 1.0019532,-3.1728516 7.6816403,0 7.6816403,-5.9282226 v -85.333008 q -0.584472,-9.852535 -6.0952146,-10.437015 -1.0854492,0 -1.0854492,-3.00586 0,-3.17285 1.0854492,-3.17285 3.3398438,0 12.3574216,-5.59424 4.341797,-2.67187 5.677735,-4.1748 0.834961,-0.83496 1.92041,-0.83496 1.753418,0 1.836914,2.25439 -0.417481,7.26416 -0.417481,14.44483 v 63.373533 q 0,3.005859 1.419434,3.005859 2.922363,0 5.34375,-3.172852 l 10.27002,-14.194336 q 2.087402,-3.005859 2.087402,-4.508789 0,-2.504882 -5.510742,-2.504882 -1.08545,0 -1.08545,-2.922364 0,-3.089355 1.08545,-3.089355 4.007812,0.500976 14.444824,0.500976 9.351562,0 13.609863,-0.500976 1.001953,0 1.001953,3.005859 0,3.00586 -1.001953,3.00586 -7.013672,0 -12.190429,5.928222 l -13.943848,15.780762 q -0.751465,0.834961 -0.751465,1.586426 0,1.168945 0.751465,2.170898 l 21.959473,29.891602 q 3.172851,4.4252926 8.349609,4.4252926 1.085449,0 1.085449,3.0893555 0,3.25634765 -1.085449,3.25634765 z"
       id="path513" />
  </g>
  <path
     class="cls-1"
     d="M201.54,349.28a1.74,1.74,0,0,0-.92.25q-9.44,5.93-9.43,15.86,0,9.78,4.84,9.77,6.43,0,6.43-8.77V351.2C202.46,349.92,202.16,349.28,201.54,349.28Z"
     id="path154"
     transform="translate(-23.13 -72.81)" />
  <path
     class="cls-7"
     d="M229.51,375.16c.23-.55,0-1.22-.58-2q-1.34-1.43-1.92-.75c-1.84,2.17-3.42,3.17-4.76,3q-4.51,0-4.51-9.52V323.48a11.81,11.81,0,0,0-4.51-8.94,19.32,19.32,0,0,0-13-4.67,28,28,0,0,0-17.62,6.26,18.18,18.18,0,0,0-4.34,5.43q-3.76,6.42-3.76,12,0,6.51,6,6.51,4.51,0,6.18-7.34a20.8,20.8,0,0,0,.34-4.35q.07-5.08.66-6.26a8.39,8.39,0,0,1,7.77-4.26q7,0,7,6v15.86a4.78,4.78,0,0,1-2.34,3.92l-10.1,6q-14.19,9.18-14.19,19.28a18.77,18.77,0,0,0,1.75,8.35q3.51,7.1,11.86,7.1,7.76,0,13.27-6.85c.67-.94,1.28-1.42,1.84-1.42.33,0,.81.53,1.42,1.59a18.52,18.52,0,0,0,4.47,4.72Q198.21,396,198.2,407.89q0,15.36,13.7,15.37,9.51,0,14.53-9.44c0-1.78-.45-2.87-1.34-3.26a9.79,9.79,0,0,1-6.85,2.59q-8.27,0-8.26-10.1,0-7.89,6.85-18.45Q225.59,384.58,229.51,375.16Zm-27-8.77q0,8.78-6.43,8.77-4.84,0-4.84-9.77,0-9.93,9.43-15.86a1.74,1.74,0,0,1,.92-.25c.62,0,.92.64.92,1.92Z"
     id="path156"
     transform="translate(-23.13 -72.81)" />
  <path
     class="cls-1"
     d="M397.42,238.07a1.72,1.72,0,0,0-.92.25q-9.44,5.93-9.44,15.86,0,9.76,4.85,9.77,6.42,0,6.43-8.77V240C398.34,238.71,398,238.07,397.42,238.07Z"
     id="path158"
     transform="translate(-23.13 -72.81)" />
  <path
     class="cls-8"
     d="M425.39,264a2,2,0,0,0-.59-2c-.89-.95-1.53-1.2-1.92-.76-1.83,2.18-3.42,3.18-4.75,3q-4.51,0-4.51-9.52V212.27a11.88,11.88,0,0,0-4.51-8.94,19.33,19.33,0,0,0-13-4.67,28,28,0,0,0-17.62,6.26,18.18,18.18,0,0,0-4.34,5.43q-3.75,6.42-3.75,12,0,6.51,6,6.51,4.5,0,6.18-7.35a20.78,20.78,0,0,0,.33-4.34c.05-3.39.28-5.48.67-6.26a8.38,8.38,0,0,1,7.76-4.26q7,0,7,6v15.87a4.78,4.78,0,0,1-2.34,3.92l-10.1,6q-14.2,9.2-14.2,19.29a18.93,18.93,0,0,0,1.75,8.35q3.51,7.1,11.86,7.1,7.77,0,13.28-6.85c.66-.94,1.28-1.42,1.83-1.42.34,0,.81.53,1.42,1.59a18.47,18.47,0,0,0,4.47,4.71q-12.22,13.51-12.23,25.43,0,15.36,13.69,15.36,9.53,0,14.53-9.43c0-1.78-.45-2.87-1.34-3.26a9.77,9.77,0,0,1-6.84,2.59q-8.26,0-8.27-10.1,0-7.89,6.86-18.46Q421.47,273.38,425.39,264Zm-27.05-8.77q0,8.77-6.43,8.77-4.85,0-4.85-9.77,0-9.93,9.44-15.86a1.72,1.72,0,0,1,.92-.25c.61,0,.92.64.92,1.92Z"
     id="path160"
     transform="translate(-23.13 -72.81)" />
  <path
     class="cls-1"
     d="M511.33,348.28a1.74,1.74,0,0,0-.92.25Q501,354.46,501,364.39q0,9.78,4.84,9.77,6.42,0,6.43-8.77V350.2C512.25,348.92,511.94,348.28,511.33,348.28Z"
     id="path162"
     transform="translate(-23.13 -72.81)" />
  <path
     class="cls-9"
     d="M539.3,374.16a2.06,2.06,0,0,0-.58-2c-.89-1-1.54-1.2-1.92-.75q-2.76,3.25-4.76,3-4.51,0-4.51-9.52V322.48a11.84,11.84,0,0,0-4.51-8.94,19.33,19.33,0,0,0-13-4.67,28,28,0,0,0-17.61,6.26,18,18,0,0,0-4.35,5.43q-3.75,6.42-3.75,12,0,6.51,6,6.51,4.5,0,6.18-7.34a21,21,0,0,0,.33-4.35q.09-5.08.67-6.26a8.38,8.38,0,0,1,7.76-4.26q7,0,7,6v15.86a4.78,4.78,0,0,1-2.34,3.92l-10.1,6q-14.21,9.18-14.2,19.28a18.77,18.77,0,0,0,1.76,8.35q3.5,7.1,11.85,7.1,7.77,0,13.28-6.85c.67-.94,1.28-1.42,1.84-1.42q.49,0,1.41,1.59a18.69,18.69,0,0,0,4.47,4.72Q508,395,508,406.89q0,15.36,13.69,15.37,9.52,0,14.53-9.44c0-1.78-.44-2.87-1.33-3.26a9.81,9.81,0,0,1-6.85,2.59q-8.26,0-8.27-10.1,0-7.89,6.86-18.45Q535.38,383.58,539.3,374.16Zm-27-8.77q0,8.78-6.43,8.77-4.85,0-4.84-9.77,0-9.93,9.43-15.86a1.74,1.74,0,0,1,.92-.25c.61,0,.92.64.92,1.92Z"
     id="path164"
     transform="translate(-23.13 -72.81)" />
  <path
     class="cls-1"
     d="M702.59,182.86a1.74,1.74,0,0,0-.92.25Q692.24,189,692.24,199q0,9.78,4.84,9.77,6.43,0,6.43-8.76v-15.2C703.51,183.5,703.2,182.86,702.59,182.86Z"
     id="path166"
     transform="translate(-23.13 -72.81)" />
  <path
     class="cls-10"
     d="M730.56,208.74c.23-.55,0-1.22-.58-2q-1.34-1.43-1.92-.75c-1.84,2.17-3.42,3.17-4.76,3q-4.51,0-4.51-9.51V157.06a11.79,11.79,0,0,0-4.51-8.93,19.28,19.28,0,0,0-13-4.68,28,28,0,0,0-17.62,6.26,18.18,18.18,0,0,0-4.34,5.43q-3.76,6.44-3.76,12,0,6.53,6,6.52,4.51,0,6.18-7.35a20.84,20.84,0,0,0,.33-4.34q.09-5.1.67-6.27a8.4,8.4,0,0,1,7.77-4.25q7,0,7,6v15.86a4.79,4.79,0,0,1-2.34,3.93l-10.1,6q-14.19,9.18-14.19,19.29a18.83,18.83,0,0,0,1.75,8.35q3.51,7.1,11.86,7.09,7.75,0,13.27-6.84c.67-.95,1.28-1.42,1.84-1.42.33,0,.81.53,1.42,1.58a18.35,18.35,0,0,0,4.47,4.72q-12.22,13.5-12.24,25.42,0,15.38,13.7,15.37,9.51,0,14.52-9.44c0-1.78-.44-2.86-1.33-3.25a9.83,9.83,0,0,1-6.85,2.58q-8.26,0-8.26-10.1,0-7.89,6.85-18.45Q726.64,218.18,730.56,208.74Zm-27-8.76q0,8.76-6.43,8.76-4.85,0-4.84-9.77,0-9.93,9.43-15.86a1.74,1.74,0,0,1,.92-.25c.61,0,.92.64.92,1.92Z"
     id="path168"
     transform="translate(-23.13 -72.81)" />
  <g
     aria-label="d"
     transform="translate(402.57 197.94)"
     id="text170"
     class="cls-11"
     style="font-weight:700;font-size:171px;font-family:Junicode-BoldCondensed, Junicode;fill:#67b32e;stroke:#1d1d1b;stroke-width:1.42px;stroke-miterlimit:10">
    <path
       d="m 68.299805,-2.5883789 q -2.003907,1.0019531 -10.437012,2.92236328 -6.84668,2.17089842 -8.76709,2.58837892 h -0.834961 q -0.667969,0 -0.667969,-3.75732424 V -3.2563477 q 0,-1.836914 -0.667968,-1.836914 -0.834961,0 -1.92041,1.1689453 -6.262208,5.8447266 -13.025391,5.8447266 -16.281738,0 -23.7128907,-14.5283202 -4.7592774,-9.268067 -4.7592774,-22.293457 0,-14.778809 8.1826171,-25.21582 9.852539,-12.524415 26.217774,-12.524415 3.256347,0 5.34375,0.333985 1.753418,0.250488 1.753418,-1.92041 v -22.710938 q 0,-10.437015 -6.095215,-10.437015 -1.08545,0 -1.08545,-3.00586 0,-3.17285 1.08545,-3.17285 3.339843,0 12.357422,-5.59424 4.341796,-2.67187 5.677734,-4.1748 0.834961,-0.83496 1.753418,-0.83496 2.003906,0 2.003906,2.75537 -0.41748,5.84473 -0.41748,14.02734 V -21.375 q 0,7.514648 0.667968,9.769043 1.001954,3.3398437 3.590332,3.3398437 0.834961,0 2.170899,-0.4174805 1.085449,-0.3339843 1.836914,2.588379 0.500977,3.0893554 -0.250488,3.5068359 z m -23.29541,-9.1845701 v -46.17334 q 0,-3.673828 -0.250489,-4.341797 -0.333984,-0.834961 -1.168945,-1.50293 -3.089356,-2.421386 -7.431152,-2.421386 -8.934082,0 -13.108887,12.023437 -2.504883,7.347656 -2.504883,17.116699 0,16.114746 5.260254,25.215821 3.924316,6.7631833 9.602051,6.7631833 5.76123,0 8.683593,-4.3417969 0.918458,-1.4194334 0.918458,-2.3378904 z"
       id="path510" />
  </g>
  <g
     aria-label="d"
     transform="translate(515.75 308.7)"
     id="text172"
     class="cls-12"
     style="font-weight:700;font-size:171px;font-family:Junicode-BoldCondensed, Junicode;fill:#f3e600;stroke:#1d1d1b;stroke-width:1.42px;stroke-miterlimit:10">
    <path
       d="m 68.299805,-2.5883789 q -2.003907,1.0019531 -10.437012,2.92236328 -6.84668,2.17089842 -8.76709,2.58837892 h -0.834961 q -0.667969,0 -0.667969,-3.75732424 V -3.2563477 q 0,-1.836914 -0.667968,-1.836914 -0.834961,0 -1.92041,1.1689453 -6.262208,5.8447266 -13.025391,5.8447266 -16.281738,0 -23.7128907,-14.5283202 -4.7592774,-9.268067 -4.7592774,-22.293457 0,-14.778809 8.1826171,-25.21582 9.852539,-12.524415 26.217774,-12.524415 3.256347,0 5.34375,0.333985 1.753418,0.250488 1.753418,-1.92041 v -22.710938 q 0,-10.437015 -6.095215,-10.437015 -1.08545,0 -1.08545,-3.00586 0,-3.17285 1.08545,-3.17285 3.339843,0 12.357422,-5.59424 4.341796,-2.67187 5.677734,-4.1748 0.834961,-0.83496 1.753418,-0.83496 2.003906,0 2.003906,2.75537 -0.41748,5.84473 -0.41748,14.02734 V -21.375 q 0,7.514648 0.667968,9.769043 1.001954,3.3398437 3.590332,3.3398437 0.834961,0 2.170899,-0.4174805 1.085449,-0.3339843 1.836914,2.588379 0.500977,3.0893554 -0.250488,3.5068359 z m -23.29541,-9.1845701 v -46.17334 q 0,-3.673828 -0.250489,-4.341797 -0.333984,-0.834961 -1.168945,-1.50293 -3.089356,-2.421386 -7.431152,-2.421386 -8.934082,0 -13.108887,12.023437 -2.504883,7.347656 -2.504883,17.116699 0,16.114746 5.260254,25.215821 3.924316,6.7631833 9.602051,6.7631833 5.76123,0 8.683593,-4.3417969 0.918458,-1.4194334 0.918458,-2.3378904 z"
       id="path507" />
  </g>
  <g
     aria-label="n"
     transform="translate(573.31 143.11)"
     id="text174"
     class="cls-2"
     style="font-weight:700;font-size:171px;font-family:Junicode-BoldCondensed, Junicode;fill:#ef781a;stroke:#1d1d1b;stroke-width:1.42px;stroke-miterlimit:10">
    <path
       d="M 71.38916,0.66796875 Q 64.291992,0 57.27832,0 50.264648,0 42.249023,0.66796875 41.24707,0.75146484 41.24707,-2.4213867 q 0,-3.2563477 1.001953,-3.2563477 6.763184,0 6.763184,-5.1767576 v -33.98291 q 0,-12.440918 -3.924316,-16.699219 -1.920411,-2.087402 -6.4292,-2.087402 -4.091308,0 -7.932129,4.174804 -4.508789,4.842774 -4.508789,10.019532 v 37.489746 q 0,6.2622066 6.679688,6.2622066 1.001953,0 1.001953,3.1728516 0,3.17285155 -1.001953,3.17285155 Q 27.219727,0 18.452637,0 9.4350586,0 3.8408203,0.66796875 q -1.0019531,0 -1.0019531,-3.17285155 0,-3.1728516 1.0019531,-3.1728516 7.0971677,0 7.0971677,-6.2622066 v -33.899414 q 0,-11.104981 -6.0952146,-11.104981 -1.0854492,0 -1.0854492,-3.005859 0,-3.172852 1.0854492,-3.172852 3.3398438,0 12.4409176,-5.677734 4.258301,-2.588379 5.594239,-4.007813 0.834961,-0.918457 1.753418,-0.918457 1.92041,0 2.003906,2.254395 l -0.417481,5.677734 q 0,1.586426 0.584473,1.586426 0.667969,0 1.252441,-0.751465 2.838868,-4.592285 9.184571,-6.763184 2.755371,-0.918457 6.345703,-0.918457 12.691406,0 18.369141,15.446778 2.33789,6.095215 2.33789,18.36914 v 27.470215 q 0,5.6777346 7.097168,5.6777346 1.085449,0 1.085449,3.1728516 0,3.17285155 -1.085449,3.17285155 z"
       id="path504" />
  </g>
  <g
     aria-label="d"
     transform="translate(706.27 143.11)"
     id="text176"
     class="cls-5"
     style="font-weight:700;font-size:171px;font-family:Junicode-BoldCondensed, Junicode;fill:#38bff0;stroke:#1d1d1b;stroke-width:1.42px;stroke-miterlimit:10">
    <path
       d="m 68.299805,-2.5883789 q -2.003907,1.0019531 -10.437012,2.92236328 -6.84668,2.17089842 -8.76709,2.58837892 h -0.834961 q -0.667969,0 -0.667969,-3.75732424 V -3.2563477 q 0,-1.836914 -0.667968,-1.836914 -0.834961,0 -1.92041,1.1689453 -6.262208,5.8447266 -13.025391,5.8447266 -16.281738,0 -23.7128907,-14.5283202 -4.7592774,-9.268067 -4.7592774,-22.293457 0,-14.778809 8.1826171,-25.21582 9.852539,-12.524415 26.217774,-12.524415 3.256347,0 5.34375,0.333985 1.753418,0.250488 1.753418,-1.92041 v -22.710938 q 0,-10.437015 -6.095215,-10.437015 -1.08545,0 -1.08545,-3.00586 0,-3.17285 1.08545,-3.17285 3.339843,0 12.357422,-5.59424 4.341796,-2.67187 5.677734,-4.1748 0.834961,-0.83496 1.753418,-0.83496 2.003906,0 2.003906,2.75537 -0.41748,5.84473 -0.41748,14.02734 V -21.375 q 0,7.514648 0.667968,9.769043 1.001954,3.3398437 3.590332,3.3398437 0.834961,0 2.170899,-0.4174805 1.085449,-0.3339843 1.836914,2.588379 0.500977,3.0893554 -0.250488,3.5068359 z m -23.29541,-9.1845701 v -46.17334 q 0,-3.673828 -0.250489,-4.341797 -0.333984,-0.834961 -1.168945,-1.50293 -3.089356,-2.421386 -7.431152,-2.421386 -8.934082,0 -13.108887,12.023437 -2.504883,7.347656 -2.504883,17.116699 0,16.114746 5.260254,25.215821 3.924316,6.7631833 9.602051,6.7631833 5.76123,0 8.683593,-4.3417969 0.918458,-1.4194334 0.918458,-2.3378904 z"
       id="path501" />
  </g>
  <g
     aria-label="d"
     transform="translate(218.08 396.58)"
     id="text178"
     class="cls-13"
     style="font-weight:700;font-size:171px;font-family:Junicode-BoldCondensed, Junicode;fill:#ec629c;stroke:#1d1d1b;stroke-width:1.42px;stroke-miterlimit:10">
    <path
       d="m 68.299805,-2.5883789 q -2.003907,1.0019531 -10.437012,2.92236328 -6.84668,2.17089842 -8.76709,2.58837892 h -0.834961 q -0.667969,0 -0.667969,-3.75732424 V -3.2563477 q 0,-1.836914 -0.667968,-1.836914 -0.834961,0 -1.92041,1.1689453 -6.262208,5.8447266 -13.025391,5.8447266 -16.281738,0 -23.7128907,-14.5283202 -4.7592774,-9.268067 -4.7592774,-22.293457 0,-14.778809 8.1826171,-25.21582 9.852539,-12.524415 26.217774,-12.524415 3.256347,0 5.34375,0.333985 1.753418,0.250488 1.753418,-1.92041 v -22.710938 q 0,-10.437015 -6.095215,-10.437015 -1.08545,0 -1.08545,-3.00586 0,-3.17285 1.08545,-3.17285 3.339843,0 12.357422,-5.59424 4.341796,-2.67187 5.677734,-4.1748 0.834961,-0.83496 1.753418,-0.83496 2.003906,0 2.003906,2.75537 -0.41748,5.84473 -0.41748,14.02734 V -21.375 q 0,7.514648 0.667968,9.769043 1.001954,3.3398437 3.590332,3.3398437 0.834961,0 2.170899,-0.4174805 1.085449,-0.3339843 1.836914,2.588379 0.500977,3.0893554 -0.250488,3.5068359 z m -23.29541,-9.1845701 v -46.17334 q 0,-3.673828 -0.250489,-4.341797 -0.333984,-0.834961 -1.168945,-1.50293 -3.089356,-2.421386 -7.431152,-2.421386 -8.934082,0 -13.108887,12.023437 -2.504883,7.347656 -2.504883,17.116699 0,16.114746 5.260254,25.215821 3.924316,6.7631833 9.602051,6.7631833 5.76123,0 8.683593,-4.3417969 0.918458,-1.4194334 0.918458,-2.3378904 z"
       id="path498" />
  </g>
  <path
     id="path180"
     clip-path="none"
     class="cls-10"
     inkscape:label="i-gray"
     d="M 308.86914 214.18945 A 8.19 8.19 0 0 0 303.15039 216.56055 A 11.78 11.78 0 0 0 299.31055 225.82031 A 12.67 12.67 0 0 0 301.06055 232.41992 C 302.96054 235.64659 305.57683 237.25977 308.91016 237.25977 A 8.71 8.71 0 0 0 314.66992 235.08984 A 11.66 11.66 0 0 0 318.59961 225.82031 A 13.54 13.54 0 0 0 316.7207 219.0293 A 8.5 8.5 0 0 0 308.86914 214.18945 z " />
  <g
     class="cls-15"
     clip-path="url(#clip-path-2)"
     id="g186" />
  <path
     id="rect133"
     class="cls-1"
     style="fill:none"
     d="m 551.76001,101.2 h 30.38 v 34.06 h -30.38 z" />
  <g
     aria-label="i"
     transform="translate(339.38,308.62)"
     id="text188"
     class="cls-18"
     style="font-weight:700;font-size:171px;font-family:Junicode-BoldCondensed, Junicode;fill:#ef7a89;stroke:#1d1d1b;stroke-width:1.42px;stroke-miterlimit:10">
    <path
       id="path494"
       d="M 24.881719 -73.727422 C 24.102423 -73.727422 23.434453 -73.421757 22.877813 -72.809453 C 21.987188 -71.863165 20.122927 -70.527225 17.284063 -68.801641 C 11.216686 -65.016488 7.0692166 -63.123906 4.8426563 -63.123906 C 4.1190242 -63.123906 3.7567187 -62.065311 3.7567188 -59.950078 C 3.7567187 -57.946174 4.1190242 -56.944219 4.8426563 -56.944219 C 8.9061286 -56.944219 10.938359 -53.46472 10.938359 -46.506719 L 10.938359 -11.940313 C 10.938359 -7.7655123 8.6004639 -5.6785938 3.9246875 -5.6785938 C 3.2567194 -5.6785938 2.9227344 -4.6199979 2.9227344 -2.5047656 C 2.9227344 -0.38953337 3.2567194 0.66710937 3.9246875 0.66710937 C 7.654176 0.22179732 12.746959 -0.000859375 19.203984 -0.000859375 C 24.770385 -0.000859375 29.417855 0.22179732 33.147344 0.66710937 C 33.815312 0.61144537 34.149297 -0.44519738 34.149297 -2.5047656 C 34.149297 -4.6199979 33.815312 -5.6785938 33.147344 -5.6785938 C 28.527231 -5.6785938 26.217656 -7.7655123 26.217656 -11.940313 L 26.217656 -56.944219 C 26.217656 -61.731323 26.357305 -66.575083 26.635625 -71.473516 C 26.746953 -72.976444 26.161991 -73.727422 24.881719 -73.727422 z " />
  </g>
  <path
     id="path491"
     style="font-weight:700;font-size:171px;font-family:Junicode-BoldCondensed, Junicode;fill:#f3ecd9;stroke:#1d1d1b;stroke-width:1.42px;stroke-miterlimit:10"
     d="M 24.881719 -73.727188 C 24.102423 -73.727187 23.434453 -73.421523 22.877813 -72.809219 C 21.987188 -71.86293 20.122927 -70.526991 17.284063 -68.801406 C 11.216686 -65.016254 7.0692166 -63.123672 4.8426563 -63.123672 C 4.1190242 -63.123672 3.7567188 -62.065076 3.7567188 -59.949844 C 3.7567188 -57.94594 4.1190242 -56.943984 4.8426563 -56.943984 C 8.9061286 -56.943984 10.938359 -53.464485 10.938359 -46.506484 L 10.938359 -11.940078 C 10.938359 -7.7652779 8.6004639 -5.6783594 3.9246875 -5.6783594 C 3.2567194 -5.6783594 2.9227344 -4.6197635 2.9227344 -2.5045313 C 2.9227344 -0.389299 3.2567194 0.66734375 3.9246875 0.66734375 C 7.654176 0.2220317 12.746959 -0.000625 19.203984 -0.000625 C 24.770385 -0.000625 29.417855 0.2220317 33.147344 0.66734375 C 33.815312 0.61167975 34.149297 -0.444963 34.149297 -2.5045313 C 34.149297 -4.6197635 33.815312 -5.6783594 33.147344 -5.6783594 C 28.527231 -5.6783594 26.217656 -7.7652779 26.217656 -11.940078 L 26.217656 -56.943984 C 26.217656 -61.731089 26.357305 -66.574849 26.635625 -71.473281 C 26.746953 -72.97621 26.161991 -73.727187 24.881719 -73.727188 z "
     transform="translate(531.13,144.11)" />
  <g
     class="cls-19"
     clip-path="url(#clip-path-4)"
     id="g194" />
  <path
     id="rect369"
     class="cls-1"
     inkscape:label="rect369"
     d="m 340.97559,194.32779 h 30.38 v 34.06 h -30.38 z" />
  <g
     id="g487">
    <path
       id="path184"
       class="cls-16"
       d="M 570.53039 105.86078 A 8.22 8.22 0 0 0 564.76086 108.20063 A 11.78 11.78 0 0 0 560.91906 117.46039 A 12.58 12.58 0 0 0 562.68078 124.06 C 564.58078 127.28666 567.19706 128.89984 570.53039 128.89984 A 8.75 8.75 0 0 0 576.29016 126.72992 A 11.68 11.68 0 0 0 580.21008 117.46039 A 13.54 13.54 0 0 0 578.37023 110.70063 A 8.48 8.48 0 0 0 570.53039 105.86078 z "
       transform="translate(-23.13,-72.81)" />
  </g>
</svg>
