<?xml version="1.0" encoding="UTF-8" standalone="no"?>
<svg
   viewBox="0 0 992.94336 453.72913"
   version="1.1"
   id="svg9280"
   sodipodi:docname="mapa.svg"
   width="992.94336"
   height="453.72913"
   inkscape:version="1.2.1 (9c6d41e4, 2022-07-14)"
   xmlns:inkscape="http://www.inkscape.org/namespaces/inkscape"
   xmlns:sodipodi="http://sodipodi.sourceforge.net/DTD/sodipodi-0.dtd"
   xmlns="http://www.w3.org/2000/svg"
   xmlns:svg="http://www.w3.org/2000/svg">
  <defs
     id="defs9284" />
  <sodipodi:namedview
     id="namedview9282"
     pagecolor="#ffffff"
     bordercolor="#000000"
     borderopacity="0.25"
     inkscape:showpageshadow="2"
     inkscape:pageopacity="0.0"
     inkscape:pagecheckerboard="0"
     inkscape:deskcolor="#d1d1d1"
     showgrid="false"
     inkscape:zoom="0.15207312"
     inkscape:cx="838.41247"
     inkscape:cy="9.8636761"
     inkscape:window-width="1280"
     inkscape:window-height="747"
     inkscape:window-x="0"
     inkscape:window-y="25"
     inkscape:window-maximized="1"
     inkscape:current-layer="svg9280" />
  <g
     style="display:inline"
     id="g9206"
     transform="matrix(0.10990507,0,0,0.10990507,-35.848733,-730.90166)">
    <path
       d="m 5145,9852 -9,-28 c -2,-8 -2,-28 1,-44 5,-25 12,-31 46,-36 72,-13 69,23 66,-686 -3,-695 -1,-671 -63,-687 -28,-8 -30,-12 -33,-60 -2,-36 1,-53 10,-56 64,-19 119,-46 197,-97 113,-74 135,-75 139,-6 3,48 3,48 42,13 68,-61 166,-70 288,-24 108,40 207,182 233,332 14,86 6,303 -15,400 -29,129 -118,276 -167,276 -11,0 -19,5 -19,11 0,5 -21,20 -47,32 -39,17 -68,21 -148,22 -55,0 -115,-4 -133,-8 -33,-9 -33,-9 -30,242 3,251 3,251 28,268 13,10 45,23 70,28 41,10 45,14 48,44 2,19 1,43 -2,55 -5,21 -9,21 -252,21 -189,0 -247,-3 -250,-12 z m 560,-784 c 70,-55 110,-205 110,-404 0,-151 -15,-232 -57,-315 -29,-57 -92,-95 -141,-86 -42,8 -93,58 -107,105 -7,23 -9,144 -7,343 3,307 3,307 32,337 42,44 127,54 170,20 z"
       style="display:inline;fill:#f1ebd7"
       id="path9186" />
    <path
       d="m 6276,9200 c -110,-50 -154,-206 -92,-329 30,-62 131,-152 240,-216 51,-30 99,-66 106,-79 9,-17 12,-61 9,-149 -2,-107 -6,-129 -22,-147 -37,-40 -149,-18 -161,32 -3,12 -9,60 -14,106 -10,89 -27,124 -73,150 -22,12 -33,13 -68,2 -78,-23 -89,-114 -29,-243 a 364,364 0 0 1 279,-208 c 139,-25 275,32 321,135 17,36 19,72 19,395 0,375 3,402 46,408 11,2 28,-6 39,-18 26,-28 63,-26 77,5 14,32 -10,81 -64,130 -41,38 -87,50 -154,42 -49,-5 -111,-47 -129,-85 -14,-30 -32,-27 -63,9 -59,71 -183,99 -267,60 z m 240,-172 c 18,-17 20,-35 23,-164 3,-94 0,-145 -6,-145 -17,0 -69,48 -91,83 -62,100 -40,273 32,251 12,-3 31,-15 42,-25 z"
       style="fill:#ffff00"
       id="path9188" />
    <path
       d="m 4465,9201 c -75,-35 -114,-110 -114,-217 0,-121 76,-214 267,-329 54,-33 101,-64 105,-70 4,-6 8,-72 8,-147 0,-129 -1,-137 -23,-157 -33,-31 -96,-30 -135,3 -27,22 -30,31 -34,108 -4,56 -12,96 -27,124 -25,50 -30,54 -83,58 -35,2 -47,-2 -71,-27 -28,-27 -29,-33 -25,-97 4,-82 51,-183 108,-235 a 409,409 0 0 1 395,-81 c 39,17 109,76 128,109 8,15 13,132 17,397 5,353 6,378 24,398 25,27 38,26 76,-5 30,-25 31,-26 50,-9 28,25 25,53 -10,109 a 193,193 0 0 1 -320,2 c -24,-34 -24,-34 -62,4 -51,54 -92,72 -168,77 -49,3 -75,-1 -106,-15 z m 225,-157 c 16,-8 31,-25 35,-37 8,-31 8,-288 -1,-288 -20,0 -75,57 -97,102 -20,41 -26,67 -26,120 0,60 3,72 25,93 28,29 28,29 64,10 z"
       style="fill:#00c3ff"
       id="path9190" />
    <path
       d="m 2753,9171 c -7,-15 -7,-34 -1,-57 9,-31 14,-35 44,-35 37,0 62,-19 71,-54 3,-12 4,-150 2,-307 -3,-313 -7,-335 -61,-346 -34,-7 -51,-42 -39,-85 6,-24 16,-33 57,-47 55,-18 175,-86 215,-121 14,-12 34,-20 50,-18 23,3 25,7 28,61 3,59 3,59 47,18 80,-73 197,-89 288,-39 35,20 97,93 109,129 2,7 27,-13 56,-43 143,-151 350,-152 463,-3 81,107 83,119 89,485 3,179 9,333 14,343 8,16 22,22 71,29 22,4 41,54 32,90 -6,23 -6,23 -239,23 -233,0 -233,0 -236,-43 -4,-50 10,-72 44,-72 13,0 33,-9 45,-21 20,-20 20,-28 17,-357 -3,-318 -4,-339 -23,-372 -24,-40 -85,-67 -127,-57 -34,9 -77,53 -102,107 -20,43 -21,61 -21,353 0,309 0,309 24,328 13,10 33,19 45,19 12,0 27,5 34,12 16,16 16,95 0,100 -22,7 -444,2 -456,-6 -16,-9 -16,-78 0,-94 7,-7 22,-12 34,-12 12,0 32,-8 43,-18 22,-17 22,-18 19,-369 -3,-339 -4,-353 -24,-380 -55,-73 -173,-42 -224,58 -19,36 -20,60 -20,357 0,296 1,320 18,335 10,10 30,17 45,17 16,0 30,8 37,19 12,23 13,71 2,86 -4,6 -92,10 -233,10 -225,0 -226,0 -237,-23 z"
       style="fill:#ff7600"
       id="path9192" />
    <path
       d="m 6686,9203 c -40,-20 -82,-61 -88,-85 -7,-28 18,-24 37,6 9,13 34,35 56,47 22,13 40,29 40,36 0,16 -9,15 -45,-4 z m -523,-151 a 287,287 0 0 1 -3,-120 c 1,-7 7,-13 14,-13 10,0 13,15 13,53 -1,28 3,69 7,90 6,29 5,37 -7,37 -9,0 -18,-17 -24,-47 z m 308,12 c 0,-8 6,-15 13,-15 8,0 22,-9 33,-21 16,-18 19,-40 22,-166 4,-145 4,-145 -18,-138 -18,6 -21,3 -18,-12 2,-13 12,-18 33,-18 30,0 30,0 33,133 3,144 -7,201 -40,232 -26,24 -58,26 -58,5 z m 0,-421 c 0,-4 16,-22 35,-41 35,-34 35,-34 35,-153 0,-65 -4,-130 -10,-144 -8,-22 -7,-26 9,-26 26,0 31,26 31,174 0,128 0,128 -34,162 -30,30 -66,45 -66,28 z m -309,-93 c -11,-11 -23,-35 -26,-53 -8,-46 7,-112 27,-116 14,-3 15,3 6,40 -11,51 -3,104 17,112 17,6 21,36 5,36 -5,0 -19,-9 -29,-19 z m -939,-156 c -12,-14 -29,-25 -37,-25 -8,0 -15,-7 -15,-15 0,-35 62,-9 85,35 20,39 -1,42 -33,5 z"
       style="fill:#000500"
       id="path9194" />
    <path
       d="m 5145,9852 -9,-28 c -2,-8 -2,-28 1,-44 5,-25 12,-31 46,-36 71,-12 68,22 65,-686 -2,-522 -4,-639 -16,-652 -12,-15 -11,-17 8,-17 14,0 23,9 28,28 5,15 8,314 8,664 0,637 0,637 -21,659 -12,11 -37,24 -55,28 -28,6 -34,12 -37,36 -3,30 -3,30 228,30 230,0 230,0 230,-27 0,-23 -6,-27 -49,-38 -28,-6 -59,-22 -72,-37 -24,-24 -24,-28 -27,-282 -4,-301 -5,-299 74,-275 67,20 161,17 238,-6 113,-35 188,-130 232,-295 27,-102 27,-386 0,-465 -26,-76 -58,-128 -108,-177 -106,-103 -283,-122 -356,-38 -16,17 -34,35 -41,39 -22,14 -41,-15 -41,-60 0,-52 -9,-54 -59,-16 -51,40 -149,97 -193,113 -32,11 -38,18 -38,41 0,16 5,28 13,28 7,0 22,6 32,14 16,12 14,13 -26,12 -44,-1 -44,-1 -47,-54 -2,-36 1,-53 10,-56 64,-19 119,-46 197,-97 113,-74 135,-75 139,-6 3,48 3,48 42,13 68,-61 166,-70 288,-24 108,40 207,182 233,332 14,86 6,303 -15,400 -29,129 -118,276 -167,276 -11,0 -19,5 -19,11 0,5 -21,20 -47,32 -39,17 -68,21 -148,22 -55,0 -115,-4 -133,-8 -33,-9 -33,-9 -30,242 3,251 3,251 28,268 13,10 45,23 70,28 41,10 45,14 48,44 2,19 1,43 -2,55 -5,21 -9,21 -252,21 -189,0 -247,-3 -250,-12 z"
       style="fill:#000000"
       id="path9196" />
    <path
       d="m 4465,9201 c -75,-35 -114,-110 -114,-217 0,-121 76,-214 267,-329 54,-33 101,-64 105,-70 4,-6 8,-72 8,-147 0,-129 -1,-137 -23,-157 -33,-31 -96,-30 -135,3 -27,22 -30,31 -34,108 -4,56 -12,96 -27,124 -25,50 -30,54 -83,58 -35,2 -47,-2 -71,-27 -28,-27 -29,-33 -25,-97 4,-82 51,-183 108,-235 a 409,409 0 0 1 395,-81 c 39,17 109,76 128,109 8,15 13,132 17,397 5,353 6,378 24,398 25,27 38,26 76,-5 30,-25 31,-26 50,-9 28,25 25,53 -10,109 a 193,193 0 0 1 -320,2 c -24,-34 -24,-34 -62,4 -51,54 -92,72 -168,77 -49,3 -75,-1 -106,-15 z m 174,-27 c 20,-9 58,-37 84,-62 51,-50 68,-51 95,-6 9,16 30,39 47,53 26,21 40,25 99,25 68,0 68,0 113,-47 29,-31 44,-56 44,-73 0,-27 0,-27 -31,-1 -47,40 -89,34 -117,-18 -15,-27 -18,-77 -22,-401 -4,-263 -8,-376 -17,-391 -23,-41 -83,-84 -140,-100 -101,-29 -227,0 -322,75 a 337,337 0 0 0 -109,222 c -4,64 -3,68 23,85 20,13 33,15 52,8 46,-16 62,-51 72,-149 4,-50 14,-100 21,-112 37,-59 163,-70 207,-18 22,25 23,34 23,174 0,147 0,147 -28,174 -15,14 -66,50 -114,79 -118,72 -173,119 -208,181 -39,68 -42,161 -7,228 40,78 146,111 235,74 z"
       style="fill:#000000"
       id="path9198" />
    <path
       d="m 4614,9071 c -62,-47 -56,-219 11,-307 33,-43 99,-87 119,-79 15,5 17,26 17,155 0,169 -10,208 -59,233 -38,20 -60,20 -88,-2 z m 76,-27 c 16,-8 31,-25 35,-37 8,-31 8,-288 -1,-288 -20,0 -75,57 -97,102 -20,41 -26,67 -26,120 0,60 3,72 25,93 28,29 28,29 64,10 z m 1591,159 c -55,-24 -110,-86 -110,-124 0,-22 26,-9 38,20 20,44 74,82 127,88 70,7 130,-15 189,-70 28,-26 55,-48 61,-48 15,1 47,49 40,60 -9,15 -25,12 -25,-5 0,-25 -30,-17 -58,16 -57,68 -181,98 -262,63 z m 427,9 c -19,-18 -4,-28 38,-25 61,5 88,-3 129,-38 33,-29 64,-85 53,-96 -3,-3 -19,4 -35,16 -38,28 -79,23 -106,-13 -20,-27 -21,-42 -26,-400 -6,-418 -4,-411 -81,-467 -58,-41 -134,-57 -216,-43 -77,14 -160,53 -202,97 a 438,438 0 0 0 -100,205 c -6,9 -10,3 -14,-20 -7,-44 41,-150 91,-202 73,-76 220,-127 322,-112 95,14 179,70 211,140 17,36 19,72 19,395 0,369 4,401 43,408 9,2 31,-8 48,-22 35,-30 64,-23 75,18 10,42 -60,133 -119,155 -31,12 -120,15 -130,4 z m -3955,-41 c -7,-15 -7,-34 -1,-57 9,-31 14,-35 44,-35 37,0 62,-19 71,-54 3,-12 4,-150 2,-307 -3,-313 -7,-335 -61,-346 -34,-7 -51,-42 -39,-85 6,-24 16,-33 57,-47 55,-18 175,-86 215,-121 14,-12 34,-20 50,-18 23,3 25,7 28,61 3,59 3,59 47,18 80,-73 197,-89 288,-39 35,20 97,93 109,129 2,7 27,-13 56,-43 143,-151 350,-152 463,-3 81,107 83,119 89,485 3,179 9,333 14,343 8,16 22,22 71,29 22,4 41,54 32,90 -6,23 -6,23 -239,23 -233,0 -233,0 -236,-43 -4,-50 10,-72 44,-72 13,0 33,-9 45,-21 20,-20 20,-28 17,-357 -3,-318 -4,-339 -23,-372 -24,-40 -85,-67 -127,-57 -34,9 -77,53 -102,107 -20,43 -21,61 -21,353 0,309 0,309 24,328 13,10 33,19 45,19 12,0 27,5 34,12 16,16 16,95 0,100 -22,7 -444,2 -456,-6 -16,-9 -16,-78 0,-94 7,-7 22,-12 34,-12 12,0 32,-8 43,-18 22,-17 22,-18 19,-369 -3,-339 -4,-353 -24,-380 -55,-73 -173,-42 -224,58 -19,36 -20,60 -20,357 0,296 1,320 18,335 10,10 30,17 45,17 16,0 30,8 37,19 12,23 13,71 2,86 -4,6 -92,10 -233,10 -225,0 -226,0 -237,-23 z m 448,-33 c 0,-22 -5,-28 -34,-33 -18,-4 -42,-16 -52,-27 -18,-20 -19,-44 -22,-346 -3,-313 -2,-327 18,-368 23,-48 90,-114 118,-116 104,-6 146,8 169,58 16,34 18,80 21,393 3,347 3,356 -17,377 -12,12 -37,25 -56,29 -30,5 -35,10 -35,33 0,27 0,27 210,27 210,0 210,0 210,-26 0,-22 -6,-28 -44,-38 -33,-8 -46,-18 -55,-40 -8,-20 -11,-119 -9,-348 3,-312 4,-320 27,-367 34,-69 80,-101 147,-101 61,0 97,21 129,75 19,32 20,52 20,385 0,331 -1,353 -19,373 -10,11 -34,23 -52,27 -29,5 -34,11 -34,33 0,27 0,27 210,27 210,0 210,0 210,-28 0,-22 -5,-28 -20,-28 -37,0 -77,-28 -89,-61 -7,-21 -11,-136 -11,-323 0,-356 -10,-406 -99,-499 -114,-121 -268,-113 -398,20 -35,34 -69,63 -77,63 -8,0 -29,-24 -47,-52 -36,-60 -48,-72 -104,-98 -79,-38 -168,-17 -252,61 -24,22 -49,39 -56,36 -7,-2 -13,-29 -15,-65 -2,-34 -5,-62 -6,-62 -2,0 -47,27 -100,61 -53,33 -115,67 -138,75 -68,24 -77,56 -24,78 67,28 71,45 74,378 4,349 2,360 -76,381 -45,12 -58,26 -49,50 4,10 53,13 216,13 211,0 211,0 211,-27 z"
       style="fill:#000000"
       id="path9200" />
    <path
       d="m 5566,9105 c -41,-18 -73,-56 -85,-97 -13,-44 -13,-603 0,-649 13,-48 68,-103 119,-121 36,-13 97,2 135,32 37,29 75,107 93,193 22,101 22,330 0,420 -20,81 -68,184 -97,211 -27,24 -123,31 -165,11 z m 139,-37 c 70,-55 110,-205 110,-404 0,-151 -15,-232 -57,-315 -29,-57 -92,-95 -141,-86 -42,8 -93,58 -107,105 -7,23 -9,144 -7,343 3,307 3,307 32,337 42,44 127,54 170,20 z"
       style="display:inline;fill:#000000"
       id="path9202" />
    <path
       d="m 6417,9067 c -51,-44 -52,-198 -1,-277 36,-57 92,-103 123,-99 27,3 27,3 30,137 1,74 0,142 -4,150 -4,9 -8,21 -8,26 -5,44 -30,68 -83,79 -24,6 -36,2 -57,-16 z m 102,-31 c 29,-23 40,-74 39,-193 0,-70 -5,-122 -11,-126 -14,-9 -63,28 -96,74 -53,72 -61,221 -14,255 18,13 59,8 82,-10 z m -358,-98 c 0,-71 113,-196 253,-277 44,-26 85,-47 90,-47 6,0 19,-13 31,-28 18,-24 21,-44 23,-155 2,-80 -1,-122 -7,-112 -7,12 -10,11 -16,-5 -20,-55 -81,-72 -144,-40 -33,17 -37,27 -49,143 -9,86 -25,121 -67,148 -37,25 -92,9 -116,-32 -15,-26 -16,-31 -3,-31 8,0 15,6 15,12 0,7 14,18 30,25 68,28 103,-20 115,-155 4,-44 14,-91 22,-103 28,-44 117,-65 178,-42 43,16 55,63 55,209 0,162 0,162 -165,252 a 503,503 0 0 0 -210,217 c -15,42 -35,54 -35,21 z"
       style="fill:#000000"
       id="path9204" />
  </g>
</svg>
