<?xml version="1.0" encoding="UTF-8" standalone="no"?>
<svg
   viewBox="0 0 992.94336 453.72913"
   version="1.1"
   id="svg9280"
   sodipodi:docname="miejscowosci.svg"
   width="992.94336"
   height="453.72913"
   inkscape:version="1.2.1 (9c6d41e4, 2022-07-14)"
   xmlns:inkscape="http://www.inkscape.org/namespaces/inkscape"
   xmlns:sodipodi="http://sodipodi.sourceforge.net/DTD/sodipodi-0.dtd"
   xmlns="http://www.w3.org/2000/svg"
   xmlns:svg="http://www.w3.org/2000/svg">
  <defs
     id="defs9284" />
  <sodipodi:namedview
     id="namedview9282"
     pagecolor="#ffffff"
     bordercolor="#000000"
     borderopacity="0.25"
     inkscape:showpageshadow="2"
     inkscape:pageopacity="0.0"
     inkscape:pagecheckerboard="0"
     inkscape:deskcolor="#d1d1d1"
     showgrid="false"
     inkscape:zoom="0.15207312"
     inkscape:cx="1617.6429"
     inkscape:cy="634.56316"
     inkscape:window-width="1280"
     inkscape:window-height="747"
     inkscape:window-x="0"
     inkscape:window-y="25"
     inkscape:window-maximized="1"
     inkscape:current-layer="svg9280" />
  <g
     style="display:inline"
     id="g9248"
     transform="matrix(0.10990507,0,0,0.10990507,-35.848733,-150.23265)">
    <path
       d="m 6032,5038 c -228,-39 -396,-303 -376,-594 14,-214 118,-388 281,-470 55,-28 67,-30 168,-30 79,0 110,4 113,13 3,6 16,12 29,12 37,0 123,59 172,118 49,58 105,174 121,250 30,142 5,356 -54,474 a 415,415 0 0 1 -454,227 z m 147,-162 c 141,-145 131,-659 -15,-787 -63,-56 -122,-30 -172,74 -42,85 -61,192 -61,339 0,140 18,238 57,315 35,69 64,92 117,92 34,0 48,-6 74,-33 z M 8401,3748 c -20,-4 -48,-22 -67,-42 -104,-114 -36,-312 107,-312 90,0 145,70 145,185 0,53 -5,72 -25,101 -37,56 -97,81 -160,68 z M 2540,3447 c -14,-6 -19,-17 -19,-46 0,-45 14,-62 52,-62 21,0 33,-8 48,-32 20,-31 20,-47 18,-325 -3,-278 -4,-293 -24,-320 a 97,97 0 0 0 -45,-33 c -47,-11 -47,-120 0,-120 25,0 151,-66 235,-124 45,-30 49,-31 70,-10 14,14 16,70 16,468 0,453 0,453 23,474 13,12 32,22 43,22 36,0 45,15 42,66 -3,49 -3,49 -221,49 -120,0 -227,-3 -238,-7 z"
       style="fill:#f1ebd7"
       id="path9208" />
    <path
       d="m 3328,3465 c -96,-36 -176,-121 -237,-251 a 652,652 0 0 1 -40,-479 c 6,-6 10,-20 10,-32 0,-46 69,-159 137,-226 68,-65 68,-65 148,-72 44,-4 87,-13 95,-21 18,-17 80,-6 138,24 123,64 223,266 174,353 -20,35 -41,38 -267,38 -142,0 -195,3 -202,13 -14,17 2,196 23,260 35,108 90,178 150,193 49,12 131,-1 173,-29 42,-28 71,-35 71,-17 0,6 6,10 13,10 7,0 21,16 30,35 14,29 15,39 5,52 -37,47 -91,88 -156,120 -61,30 -85,37 -150,40 -50,2 -90,-2 -115,-11 z m 191,-830 c 7,-60 -52,-136 -106,-136 -37,0 -88,33 -107,69 -18,36 -20,88 -2,94 6,3 57,4 112,3 100,-1 100,-1 103,-30 z"
       style="fill:#ffff00"
       id="path9210" />
    <path
       d="m 4692,5036 c -14,-6 -33,-26 -42,-42 -10,-17 -81,-221 -160,-455 -78,-234 -149,-433 -157,-443 -8,-9 -29,-21 -46,-25 -29,-8 -31,-11 -31,-58 0,-49 0,-49 200,-51 110,-1 210,0 223,3 21,4 23,10 20,51 -3,44 -5,47 -36,55 -55,15 -57,-2 38,368 28,113 55,208 59,213 8,8 121,-385 121,-421 0,-32 -38,-127 -58,-145 -9,-8 -26,-17 -37,-19 -16,-2 -21,-12 -23,-46 -5,-65 5,-70 133,-61 61,4 142,4 181,2 40,-3 84,-3 98,1 25,6 27,10 24,53 -3,44 -5,47 -36,55 -18,5 -36,16 -39,25 -6,16 127,563 138,563 3,0 22,-62 43,-137 l 72,-258 c 19,-66 34,-132 34,-147 0,-30 -24,-48 -64,-48 -21,0 -26,-6 -31,-34 -4,-19 -4,-44 0,-55 6,-21 11,-21 188,-19 182,3 182,3 182,53 0,49 0,49 -41,58 -71,13 -56,-22 -221,517 l -93,305 c -14,50 -33,100 -41,112 -30,48 -108,48 -138,0 -8,-12 -53,-139 -101,-282 -87,-260 -87,-260 -109,-185 l -51,165 -59,190 c -27,91 -57,145 -81,145 -4,0 -14,2 -22,5 -7,3 -24,-1 -37,-8 z"
       style="fill:#f5629d"
       id="path9212" />
    <path
       d="m 4528,3469 c -56,-14 -112,-46 -130,-74 -32,-48 -51,-268 -25,-294 7,-7 26,-12 44,-12 30,0 34,4 50,53 42,129 114,207 192,207 86,0 137,-101 98,-193 -19,-46 -62,-82 -126,-107 -211,-82 -287,-183 -278,-369 3,-71 9,-95 33,-139 35,-65 81,-106 155,-141 48,-22 68,-26 150,-25 67,1 111,6 150,20 55,20 55,20 71,85 9,35 19,94 23,131 7,62 6,67 -14,78 -38,21 -66,5 -93,-53 -47,-103 -125,-155 -196,-131 -38,14 -71,69 -71,120 0,66 48,114 153,154 182,70 246,138 268,285 24,165 -57,324 -196,386 -56,25 -192,35 -258,19 z M 2675,2160 c -93,-57 -109,-211 -31,-291 101,-103 241,-38 254,118 4,46 0,65 -19,102 -43,83 -133,114 -204,71 z m 1310,0 c -81,-49 -105,-172 -52,-262 34,-57 83,-84 141,-76 22,3 43,9 46,14 3,4 15,13 26,19 11,5 30,30 43,55 46,88 13,217 -65,254 -42,20 -102,19 -139,-4 z"
       style="fill:#7c91cb"
       id="path9214" />
    <path
       d="m 8224,5013 c -2,-7 -3,-31 -1,-55 3,-40 5,-43 38,-51 70,-18 70,-16 70,-347 0,-216 -4,-303 -13,-321 -7,-14 -29,-33 -50,-43 -34,-17 -37,-22 -37,-63 0,-39 3,-46 28,-55 64,-24 196,-95 230,-124 29,-24 43,-30 67,-25 30,5 30,5 27,460 -3,512 -5,499 66,514 37,8 42,12 48,43 4,19 2,44 -3,55 -9,20 -17,21 -237,22 -162,1 -230,-2 -233,-10 z M 6249,3463 c -27,-8 -48,-19 -48,-24 0,-6 -8,-10 -19,-10 -50,0 -168,-127 -217,-235 a 713,713 0 0 1 0,-537 c 46,-103 146,-218 190,-218 9,0 19,-7 22,-15 11,-28 94,-50 190,-50 85,1 97,3 167,38 168,83 264,250 274,478 17,360 -159,591 -447,588 -36,0 -86,-7 -112,-15 z m 167,-134 c 53,-33 91,-124 112,-272 35,-243 -29,-511 -132,-554 -162,-67 -272,374 -174,693 14,46 32,76 63,108 49,51 79,57 131,25 z"
       style="fill:#00c3ff"
       id="path9216" />
    <path
       d="m 6853,5038 c -54,-9 -140,-47 -159,-71 -15,-18 -33,-142 -33,-228 0,-66 2,-71 25,-80 41,-16 71,2 83,52 16,61 66,142 106,173 20,15 53,29 75,32 34,5 43,1 75,-28 47,-43 57,-97 31,-164 -19,-52 -57,-85 -133,-114 -139,-55 -205,-109 -247,-202 -33,-74 -37,-177 -10,-258 21,-64 92,-144 159,-178 86,-44 259,-42 348,3 22,11 29,26 41,81 18,80 23,149 12,181 -6,17 -15,22 -41,22 -28,0 -36,-5 -45,-27 -25,-70 -68,-131 -107,-152 -22,-12 -90,-15 -117,-5 -23,9 -55,77 -55,116 0,39 29,90 64,113 13,9 58,29 99,45 171,66 239,141 257,285 33,264 -164,450 -428,404 z M 3726,4100 c -77,-47 -112,-133 -81,-202 22,-50 38,-66 76,-76 56,-15 84,0 129,73 22,35 47,64 55,64 39,0 41,-23 44,-650 2,-577 2,-607 -16,-640 -13,-24 -27,-36 -46,-38 -29,-4 -40,-28 -34,-82 3,-29 8,-34 45,-45 52,-16 188,-89 222,-121 28,-26 63,-31 78,-11 6,7 7,240 3,637 -7,586 -9,631 -29,714 a 701,701 0 0 1 -152,307 c -83,81 -223,114 -294,70 z"
       style="fill:#ff7600"
       id="path9218" />
    <path
       d="m 5401,3470 a 483,483 0 0 1 -281,-296 c -27,-75 -37,-244 -20,-340 23,-129 95,-270 183,-356 56,-54 147,-97 225,-105 119,-13 265,36 305,101 35,59 17,161 -37,203 -57,45 -100,24 -149,-75 -30,-60 -58,-83 -102,-83 -152,0 -244,398 -139,600 52,100 121,150 206,150 53,0 129,-27 143,-49 4,-6 20,-11 36,-11 24,0 32,7 50,45 12,25 20,52 17,60 -10,24 -110,97 -177,128 -52,24 -82,30 -150,33 -47,2 -96,0 -110,-5 z"
       style="fill:#777365"
       id="path9220" />
    <path
       d="m 7706,5038 c -139,-33 -260,-163 -311,-334 -24,-80 -24,-255 -1,-345 43,-166 160,-331 275,-387 52,-26 67,-28 170,-28 81,0 115,4 121,13 4,7 14,10 22,7 19,-7 88,34 113,68 25,34 27,117 3,164 -17,32 -65,73 -86,73 -27,0 -64,-37 -91,-89 -33,-66 -56,-89 -96,-96 -120,-23 -235,263 -191,477 40,196 152,300 291,269 29,-6 69,-23 89,-36 20,-14 43,-25 51,-25 20,0 44,36 52,78 8,40 -14,67 -101,124 -91,59 -223,88 -310,67 z M 951,3451 c -14,-5 -12,-88 3,-99 6,-6 29,-13 49,-17 22,-4 42,-15 48,-26 6,-11 10,-132 10,-310 0,-331 -3,-350 -65,-370 -36,-12 -36,-12 -33,-62 3,-50 3,-51 45,-63 48,-14 136,-62 206,-111 77,-55 114,-40 104,42 -4,42 -4,44 12,29 10,-8 23,-15 31,-15 7,0 29,-15 50,-34 28,-25 51,-36 87,-41 98,-13 181,28 236,117 30,49 30,49 74,-1 64,-74 156,-116 248,-116 123,1 205,60 269,194 31,66 31,66 36,399 5,334 5,334 29,353 13,10 31,19 41,19 41,0 50,11 50,60 0,29 -5,49 -12,52 -22,7 -444,1 -457,-6 -15,-9 -14,-79 1,-94 7,-7 21,-12 33,-12 11,0 31,-7 43,-16 22,-15 22,-15 21,-347 0,-230 -4,-342 -12,-366 -14,-41 -50,-70 -97,-77 -46,-7 -96,26 -130,86 -25,45 -25,45 -28,362 -3,308 -2,318 17,337 12,12 31,21 44,21 39,0 48,14 45,66 -3,49 -3,49 -232,49 -230,0 -230,0 -237,-28 -4,-15 -4,-39 0,-54 6,-23 15,-29 46,-34 68,-11 67,-6 63,-374 -5,-383 -8,-402 -73,-423 -70,-23 -127,1 -174,72 -26,41 -26,41 -29,360 -3,315 -3,319 19,342 12,12 36,24 53,26 31,3 31,4 31,58 0,55 0,55 -227,55 -126,0 -232,-1 -238,-3 z"
       style="fill:#00ff07"
       id="path9222" />
    <path
       d="m 7751,5036 c 0,-9 20,-17 65,-23 50,-8 65,-7 65,2 0,18 -7,21 -72,28 -47,6 -58,5 -58,-7 z m -134,-30 a 485,485 0 0 1 -146,-144 c 0,-25 22,-13 70,40 27,29 64,62 84,72 21,11 36,27 36,37 0,10 -1,18 -2,17 z m 306,-3 c 2,-10 12,-20 23,-23 11,-2 37,-17 57,-33 34,-26 58,-30 58,-10 0,8 -93,66 -124,78 -14,5 -17,3 -14,-12 z m 155,-831 c 4,-21 7,-53 6,-70 -2,-35 20,-46 31,-17 7,19 -2,80 -16,107 -16,31 -29,19 -21,-20 z M 1194,3452 c -111,-4 -144,-14 -82,-27 40,-8 143,-8 192,0 36,7 55,36 20,32 -10,-1 -69,-4 -130,-5 z m 887,-9 c 0,-16 49,-24 145,-24 114,0 205,11 205,24 0,8 -54,11 -175,11 -123,0 -175,-3 -175,-11 z m 1184,-10 c -48,-32 -84,-65 -84,-76 0,-17 36,-7 59,18 13,14 37,32 53,40 15,8 28,21 28,29 0,21 -12,19 -56,-11 z m -188,-246 c -41,-93 -68,-258 -42,-258 10,0 17,24 26,83 10,68 27,125 67,215 3,7 -2,12 -11,12 -11,0 -26,-19 -40,-52 z M 1591,2737 c 0,-13 -3,-40 -6,-60 -5,-30 -3,-38 8,-38 11,0 17,15 22,46 9,66 8,74 -9,74 -9,0 -15,-9 -15,-22 z m 2145,-35 c 0,-27 -4,-60 -9,-75 -12,-40 12,-36 28,5 18,42 15,111 -4,115 -12,2 -15,-9 -15,-45 z m -277,-11 c -74,-4 -76,-22 -2,-22 47,0 57,-3 61,-20 8,-29 33,-25 33,5 0,32 -22,41 -92,37 z M 1331,2591 c 0,-34 68,-82 114,-82 36,0 33,17 -4,25 -17,4 -47,22 -67,41 -42,39 -43,40 -43,16 z"
       style="fill:#000500"
       id="path9224" />
    <path
       d="m 4692,5036 c -14,-6 -33,-26 -42,-42 -10,-17 -81,-221 -160,-455 -78,-234 -149,-433 -157,-443 -8,-9 -29,-21 -46,-25 -29,-8 -31,-11 -31,-58 0,-49 0,-49 182,-50 100,-1 194,-5 208,-8 38,-10 57,14 53,66 -3,38 -6,43 -36,50 -55,15 -57,-2 38,368 28,113 55,208 59,213 8,8 121,-385 121,-421 0,-32 -38,-127 -58,-145 -9,-8 -26,-17 -37,-19 -16,-2 -21,-12 -23,-46 -5,-66 4,-70 137,-61 63,4 150,4 194,-1 97,-9 110,-2 105,62 -3,38 -6,43 -36,50 -18,5 -36,16 -39,25 -6,16 127,563 138,563 3,0 22,-62 43,-137 l 72,-258 c 19,-66 34,-132 34,-147 0,-30 -24,-48 -64,-48 -21,0 -26,-6 -31,-34 -8,-39 0,-73 18,-78 7,-1 89,-1 182,2 170,5 170,5 170,55 0,49 0,49 -41,58 -71,13 -56,-22 -221,517 l -93,305 c -14,50 -33,100 -41,112 -30,48 -108,48 -138,0 -8,-12 -53,-139 -101,-282 -87,-260 -87,-260 -109,-185 l -51,165 -59,190 c -27,91 -57,145 -81,145 -4,0 -14,2 -22,5 -7,3 -24,-1 -37,-8 z m 49,-27 c 28,-15 31,-22 120,-310 45,-146 87,-268 93,-272 6,-4 17,-2 24,3 6,6 53,134 103,284 75,224 96,276 116,290 27,17 56,8 73,-23 4,-9 45,-138 90,-287 l 111,-360 c 16,-49 38,-122 49,-161 23,-78 47,-107 106,-127 28,-10 41,-21 43,-35 3,-22 2,-22 -162,-22 -166,0 -166,0 -166,24 0,18 7,25 32,30 76,15 83,54 39,210 l -66,236 c -63,233 -66,239 -91,222 -21,-14 -32,-49 -100,-324 -75,-305 -75,-318 -14,-341 21,-8 30,-18 30,-34 0,-23 0,-23 -174,-23 -96,0 -181,-3 -189,-6 -10,-4 -16,4 -19,25 -3,21 0,31 8,31 7,0 26,11 42,25 31,26 72,125 72,173 0,13 -21,99 -46,190 -76,276 -76,277 -101,280 -26,4 -25,9 -114,-345 -70,-277 -70,-293 -9,-316 21,-8 30,-18 30,-34 0,-22 -1,-22 -195,-25 -195,-3 -195,-3 -195,23 0,19 8,29 32,40 17,8 40,25 50,39 10,14 83,221 164,460 107,322 151,440 167,452 26,21 24,20 47,8 z m 1291,29 c -228,-39 -396,-303 -376,-594 14,-214 118,-388 281,-470 55,-28 67,-30 168,-30 79,0 110,4 113,13 3,6 16,12 29,12 37,0 123,59 172,118 49,58 105,174 121,250 30,142 5,356 -54,474 a 415,415 0 0 1 -454,227 z m 154,-30 c 79,-14 140,-47 197,-104 95,-97 138,-224 138,-408 0,-162 -31,-265 -114,-376 a 407,407 0 0 0 -207,-141 c -79,-19 -194,-8 -259,25 a 506,506 0 0 0 -236,311 c -28,90 -25,267 4,361 52,168 167,290 305,328 65,17 98,18 172,4 z"
       style="fill:#000000"
       id="path9226" />
    <path
       d="m 6017,4905 c -83,-78 -120,-220 -113,-441 5,-162 19,-232 65,-324 83,-165 220,-143 293,48 68,179 60,494 -16,639 -45,87 -78,112 -147,112 -39,0 -52,-5 -82,-34 z m 162,-29 c 141,-145 131,-659 -15,-787 -63,-56 -122,-30 -172,74 -42,85 -61,192 -61,339 0,140 18,238 57,315 35,69 64,92 117,92 34,0 48,-6 74,-33 z m 674,162 c -54,-9 -140,-47 -159,-71 -15,-18 -33,-142 -33,-228 0,-66 2,-71 25,-80 41,-16 71,2 83,52 16,61 66,142 106,173 20,15 53,29 75,32 34,5 43,1 75,-28 47,-43 57,-97 31,-164 -19,-52 -57,-85 -133,-114 -139,-55 -205,-109 -247,-202 -33,-74 -37,-177 -10,-258 21,-64 92,-144 159,-178 86,-44 259,-42 348,3 22,11 29,26 41,81 18,80 23,149 12,181 -6,17 -15,22 -41,22 -28,0 -36,-5 -45,-27 -25,-70 -68,-131 -107,-152 -22,-12 -90,-15 -117,-5 -23,9 -55,77 -55,116 0,39 29,90 64,113 13,9 58,29 99,45 171,66 239,141 257,285 33,264 -164,450 -428,404 z m 198,-40 a 325,325 0 0 0 200,-371 c -24,-135 -86,-194 -274,-263 -55,-20 -110,-65 -132,-106 -33,-64 -2,-174 58,-205 35,-18 111,-18 147,0 33,18 72,66 102,130 22,44 41,57 54,36 10,-16 -24,-193 -40,-210 -35,-38 -214,-53 -297,-24 a 298,298 0 0 0 -187,338 c 23,131 90,198 264,262 115,43 182,162 144,261 -16,43 -69,92 -106,99 -48,9 -115,-19 -158,-68 -38,-41 -85,-130 -85,-159 0,-21 -26,-43 -40,-34 -13,8 -11,145 3,214 11,52 15,56 61,79 89,44 203,53 286,21 z m 650,39 c -25,-6 -64,-25 -86,-44 -23,-18 -45,-30 -49,-26 -3,4 -5,0 -3,-8 2,-8 -3,-14 -9,-12 -7,1 -12,-1 -11,-5 5,-13 -26,-48 -42,-48 -21,0 -77,-98 -102,-180 -28,-89 -30,-257 -5,-355 43,-166 160,-331 275,-387 52,-26 67,-28 170,-28 85,0 115,3 121,14 5,7 14,11 20,7 13,-8 80,25 104,52 19,20 39,77 30,86 -12,11 -33,-8 -33,-30 0,-18 -12,-32 -46,-54 -97,-61 -254,-68 -358,-15 -109,55 -213,201 -253,355 a 658,658 0 0 0 57,463 c 17,27 27,54 24,60 -4,7 -4,9 1,5 4,-4 30,13 57,38 53,50 111,79 176,90 26,4 42,12 42,20 0,16 -16,16 -80,2 z m 147,-12 c -4,-9 12,-18 50,-30 30,-10 57,-15 60,-12 8,8 -8,27 -30,35 -50,19 -75,21 -80,7 z m 376,-12 c -2,-7 -3,-31 -1,-55 3,-40 5,-43 38,-51 70,-18 70,-16 70,-347 0,-216 -4,-303 -13,-321 -7,-14 -29,-33 -50,-43 -34,-17 -37,-22 -37,-63 0,-39 3,-46 28,-55 64,-24 196,-95 230,-124 29,-24 43,-30 67,-25 30,5 30,5 27,460 -3,512 -5,499 66,514 37,8 42,12 48,43 4,19 2,44 -3,55 -9,20 -17,21 -237,22 -162,1 -230,-2 -233,-10 z m 445,-48 c 3,-21 -2,-26 -36,-35 -81,-22 -77,5 -78,-515 0,-345 -4,-460 -12,-459 -7,2 -33,18 -59,36 -53,37 -152,92 -195,107 -42,14 -39,55 5,74 62,25 67,55 67,391 0,198 -4,302 -11,319 -7,15 -29,32 -53,41 -46,19 -56,29 -49,54 4,14 27,16 211,14 207,-1 207,-1 210,-27 z"
       style="fill:#000000"
       id="path9228" />
    <path
       d="m 8017,4950 c -4,-5 12,-24 34,-41 44,-35 49,-56 21,-91 -18,-23 -18,-23 -46,-1 -16,12 -53,29 -83,38 -251,73 -428,-273 -312,-612 43,-126 127,-205 201,-189 43,10 94,58 114,108 19,49 42,77 63,77 20,0 72,-58 72,-82 0,-10 5,-16 10,-13 6,3 10,18 10,32 0,28 -60,93 -86,93 -30,0 -66,-35 -94,-89 -33,-66 -56,-89 -96,-96 -120,-23 -235,263 -191,477 40,196 152,300 291,269 29,-6 69,-23 89,-36 20,-14 43,-25 51,-25 20,0 46,39 52,82 5,30 1,38 -35,71 -42,38 -56,44 -65,28 z M 3726,4100 c -77,-47 -112,-133 -81,-202 22,-50 38,-66 76,-76 56,-15 84,0 129,73 22,35 47,64 55,64 39,0 41,-23 44,-650 2,-577 2,-607 -16,-640 -13,-24 -27,-36 -46,-38 -29,-4 -40,-28 -34,-82 3,-29 8,-34 45,-45 52,-16 188,-89 222,-121 28,-26 63,-31 78,-11 6,7 7,240 3,637 -7,586 -9,631 -29,714 a 701,701 0 0 1 -152,307 c -83,81 -223,114 -294,70 z m 201,-39 c 44,-22 125,-107 151,-156 42,-82 77,-221 88,-351 8,-105 12,-1165 4,-1165 -3,0 -37,21 -75,46 a 918,918 0 0 1 -204,104 c -5,0 -10,13 -10,29 0,23 6,31 29,39 16,6 38,23 48,38 17,26 18,65 18,649 0,562 -2,624 -17,658 -14,30 -22,37 -46,37 -31,0 -55,-21 -92,-83 -42,-71 -83,-81 -129,-33 -50,53 -31,147 39,194 30,20 44,23 95,19 33,-2 79,-14 101,-25 z m 4474,-313 c -20,-4 -48,-22 -67,-42 -104,-114 -36,-312 107,-312 90,0 145,70 145,185 0,53 -5,72 -25,101 -37,56 -97,81 -160,68 z m 109,-53 c 74,-66 63,-212 -20,-258 -40,-23 -66,-23 -106,2 -44,26 -63,58 -69,116 -14,127 110,217 195,140 z"
       style="fill:#000000"
       id="path9230" />
    <path
       d="m 3339,3470 c -15,-5 -39,-18 -53,-29 -36,-28 -11,-33 44,-9 36,16 59,19 118,14 91,-7 165,-39 232,-102 50,-47 50,-47 35,-76 -17,-34 -26,-35 -62,-11 -50,34 -90,44 -156,40 -51,-3 -71,-10 -100,-32 -91,-69 -135,-176 -143,-352 -8,-151 -20,-144 249,-144 207,0 207,0 229,-31 28,-40 49,-24 23,19 -23,40 -39,42 -269,42 -142,0 -195,3 -202,13 -14,17 2,196 23,260 35,108 90,178 150,193 53,13 131,-1 181,-34 41,-27 50,-30 59,-17 6,8 16,15 21,15 5,0 17,16 26,35 14,29 15,39 5,52 -37,47 -91,88 -156,120 -61,31 -85,37 -150,39 -42,2 -89,-1 -104,-5 z m 1189,-1 c -56,-14 -112,-46 -130,-74 -32,-48 -51,-268 -25,-294 7,-7 26,-12 44,-12 30,0 34,4 50,53 42,129 114,207 192,207 86,0 137,-101 98,-193 -19,-46 -62,-82 -126,-107 -211,-82 -287,-183 -278,-369 3,-71 9,-95 33,-139 35,-65 81,-106 155,-141 48,-22 68,-26 150,-25 67,1 111,6 150,20 55,20 55,20 71,85 9,35 19,94 23,131 7,62 6,67 -14,78 -38,21 -66,5 -93,-53 -47,-103 -125,-155 -196,-131 -38,14 -71,69 -71,120 0,66 48,114 153,154 182,70 246,138 268,285 24,165 -57,324 -196,386 -56,25 -192,35 -258,19 z m 220,-35 c 61,-18 138,-84 170,-144 61,-115 47,-285 -30,-377 -26,-31 -130,-87 -220,-119 -107,-38 -163,-145 -123,-238 30,-71 94,-99 173,-78 49,13 102,70 136,144 22,48 57,66 57,28 0,-43 -32,-197 -43,-208 -23,-23 -138,-46 -207,-40 -84,6 -149,35 -203,90 -54,56 -77,120 -77,217 0,146 79,246 235,300 110,38 168,95 181,180 10,62 -3,106 -45,150 -34,36 -43,40 -86,40 -56,0 -118,-32 -151,-77 -28,-38 -69,-121 -78,-156 -5,-20 -12,-27 -24,-25 -22,4 -27,66 -13,173 9,68 15,83 38,102 60,48 212,67 310,38 z"
       style="fill:#000000"
       id="path9232" />
    <path
       d="m 5401,3470 a 483,483 0 0 1 -281,-296 c -27,-75 -37,-244 -20,-340 23,-129 95,-270 183,-356 56,-54 147,-97 225,-105 119,-13 265,36 305,101 35,59 17,161 -37,203 -57,45 -100,24 -149,-75 -30,-60 -58,-83 -102,-83 -152,0 -244,398 -139,600 52,100 121,150 206,150 53,0 129,-27 143,-49 4,-6 20,-11 36,-11 24,0 32,7 50,45 12,25 20,52 17,60 -10,24 -110,97 -177,128 -52,24 -82,30 -150,33 -47,2 -96,0 -110,-5 z m 237,-49 c 45,-17 173,-105 173,-118 0,-14 -32,-64 -41,-64 -6,0 -25,10 -42,22 -18,13 -34,22 -37,22 a 259,259 0 0 1 -217,-17 395,395 0 0 1 -134,-177 694,694 0 0 1 12,-424 c 46,-124 112,-184 191,-173 50,7 82,36 119,110 17,32 37,61 45,64 44,17 94,-51 94,-127 0,-34 -6,-46 -32,-70 -86,-79 -278,-91 -393,-24 a 606,606 0 0 0 -213,269 c -64,168 -54,399 23,531 46,78 143,170 201,188 63,20 181,15 251,-12 z m 611,42 c -27,-8 -48,-19 -48,-24 0,-6 -8,-10 -19,-10 -50,0 -168,-127 -217,-235 a 713,713 0 0 1 0,-537 c 46,-103 146,-218 190,-218 9,0 19,-7 22,-15 11,-28 94,-50 190,-50 85,1 97,3 167,38 168,83 264,250 274,478 17,360 -159,591 -447,588 -36,0 -86,-7 -112,-15 z m 286,-47 c 114,-52 199,-173 232,-328 21,-101 14,-280 -14,-369 -57,-176 -195,-300 -351,-316 -196,-21 -367,112 -437,341 -23,75 -26,275 -5,350 23,81 80,182 137,240 90,91 157,117 290,111 71,-2 103,-9 148,-29 z"
       style="display:inline;fill:#000000"
       id="path9234" />
    <path
       d="m 6302,3362 c -100,-49 -164,-287 -141,-524 10,-103 35,-215 51,-225 5,-3 9,-12 9,-20 0,-29 53,-94 94,-113 71,-35 136,0 185,102 47,94 64,190 64,352 -1,219 -50,368 -139,420 -50,29 -76,31 -123,8 z m 114,-33 c 53,-33 91,-124 112,-272 35,-243 -29,-511 -132,-554 -162,-67 -272,374 -174,693 14,46 32,76 63,108 49,51 79,57 131,25 z"
       style="display:inline;fill:#000000"
       id="path9236" />
    <path
       d="m 954,3453 c -8,-3 -13,-24 -13,-49 0,-49 10,-60 62,-69 22,-4 42,-15 48,-26 6,-11 10,-132 10,-310 0,-331 -3,-350 -65,-370 -36,-12 -36,-12 -33,-62 3,-50 3,-51 45,-63 48,-14 136,-62 206,-111 77,-55 114,-40 104,42 -4,42 -4,44 12,29 10,-8 23,-15 31,-15 7,0 29,-15 50,-34 28,-25 51,-36 87,-41 98,-13 181,28 236,117 30,49 30,49 74,-1 64,-74 156,-116 248,-116 123,1 205,60 269,194 31,66 31,66 36,399 5,334 5,334 29,353 13,10 31,19 41,19 41,0 50,11 50,60 0,34 -4,50 -16,54 -21,8 -93,6 -124,-4 -25,-8 -24,-8 5,-9 l 68,-7 c 32,-6 37,-10 37,-33 0,-23 -6,-28 -42,-38 -69,-19 -70,-22 -69,-317 2,-364 -13,-453 -95,-553 -109,-133 -311,-116 -432,36 -44,55 -63,53 -100,-13 -36,-63 -70,-92 -126,-107 -81,-22 -185,14 -239,82 -19,25 -29,30 -47,24 -20,-6 -22,-12 -17,-54 8,-68 -3,-80 -44,-49 -51,38 -190,116 -221,123 -41,10 -40,56 1,72 16,6 37,23 47,39 18,26 19,53 19,350 0,363 1,356 -76,369 -35,6 -39,10 -39,36 0,29 0,29 77,29 54,0 74,3 67,10 -12,12 -142,23 -161,14 z"
       style="fill:#000000"
       id="path9238" />
    <path
       d="m 1271,3450 c -30,-6 -25,-8 43,-15 76,-8 77,-9 77,-36 0,-24 -5,-29 -35,-34 -20,-4 -43,-18 -55,-33 -20,-26 -21,-35 -18,-352 3,-351 4,-356 61,-418 35,-39 37,-15 4,40 -32,52 -32,52 -35,371 -3,315 -3,319 19,342 12,12 36,24 53,26 31,3 31,4 31,58 0,55 0,55 -55,56 -30,1 -71,-1 -90,-5 z m 213,-5 c -8,-12 -7,-81 1,-95 4,-6 20,-11 37,-11 16,0 38,-9 49,-20 19,-19 20,-33 20,-304 0,-240 2,-285 15,-296 13,-11 15,21 14,281 -1,335 -2,345 -75,365 -32,9 -39,15 -39,35 0,24 0,24 208,24 207,0 207,0 207,-26 0,-22 -6,-28 -34,-33 -18,-4 -42,-16 -52,-27 -18,-20 -19,-42 -19,-353 0,-331 0,-331 32,-386 69,-120 189,-132 267,-26 20,26 21,42 24,379 2,252 0,358 -9,373 -12,24 -49,44 -79,44 -16,0 -20,7 -20,30 0,28 3,30 38,31 78,1 103,14 47,25 -21,4 -54,3 -74,-2 -33,-8 -36,-13 -39,-47 -4,-44 11,-67 42,-67 12,0 32,-7 44,-16 22,-15 22,-15 21,-347 0,-230 -4,-342 -12,-366 -14,-41 -50,-70 -97,-77 -46,-7 -96,26 -130,86 -25,45 -25,45 -28,362 -3,308 -2,318 17,337 12,12 31,21 44,21 39,0 48,14 45,66 -3,49 -3,49 -231,49 -126,0 -231,-4 -234,-9 z m 1056,2 c -14,-6 -19,-17 -19,-46 0,-45 14,-62 52,-62 21,0 33,-8 48,-32 20,-31 20,-47 18,-325 -3,-278 -4,-293 -24,-320 a 97,97 0 0 0 -45,-33 c -47,-11 -47,-120 0,-120 25,0 151,-66 235,-124 46,-31 51,-32 71,-8 14,15 16,78 15,467 0,448 0,448 22,472 12,12 31,23 42,23 38,0 47,14 44,66 -3,49 -3,49 -221,49 -120,0 -227,-3 -238,-7 z m 431,-49 c 0,-23 -6,-28 -35,-33 -19,-4 -43,-18 -55,-33 -19,-25 -20,-38 -20,-484 0,-253 -3,-459 -8,-459 -4,0 -30,16 -57,36 -55,39 -200,114 -222,114 -8,0 -13,11 -13,28 0,23 6,30 33,37 23,7 38,21 52,50 19,37 20,60 20,335 0,344 -2,354 -71,372 -38,10 -44,16 -44,38 0,26 0,26 210,26 210,-1 210,-1 210,-27 z"
       style="fill:#000000"
       id="path9240" />
    <path
       d="m 3162,3335 c -44,-57 -81,-127 -81,-151 0,-20 31,16 78,91 18,28 41,59 52,69 24,21 26,42 5,42 -8,0 -33,-23 -54,-51 z m -141,-409 c 0,-62 19,-180 30,-191 6,-6 10,-20 10,-32 0,-47 69,-159 139,-227 60,-58 74,-67 106,-67 38,0 38,0 -16,29 -130,68 -239,283 -239,470 0,34 -4,51 -15,55 -12,4 -15,-3 -15,-37 z m 244,-252 c -11,-28 3,-106 23,-134 31,-40 82,-71 121,-71 78,0 146,84 140,172 -3,37 -6,43 -26,44 -17,1 -20,-2 -13,-9 16,-16 13,-73 -4,-107 -19,-38 -62,-70 -92,-70 -61,0 -123,64 -123,127 0,36 8,40 90,43 92,2 77,17 -19,19 -76,2 -92,-1 -97,-14 z"
       style="display:inline;fill:#000000"
       id="path9242" />
    <path
       d="m 1588,2672 c -2,-5 -8,-26 -12,-48 -4,-22 -11,-47 -16,-57 -10,-19 -67,-38 -116,-38 -18,0 -33,-4 -33,-10 0,-17 110,-16 142,1 35,19 74,138 50,153 -6,3 -13,3 -15,-1 z m 2121,-78 c -57,-110 -134,-171 -241,-190 -30,-6 -35,-10 -26,-21 24,-29 151,20 215,85 47,47 97,142 92,174 -3,17 -12,6 -40,-48 z M 2675,2160 c -93,-57 -109,-211 -31,-291 101,-103 241,-38 254,118 4,46 0,65 -19,102 -43,83 -133,114 -204,71 z m 138,-32 c 107,-77 55,-279 -71,-279 -59,0 -121,79 -121,152 1,43 32,111 61,132 33,23 95,20 131,-5 z m 1172,32 c -81,-49 -105,-172 -52,-262 34,-57 83,-84 141,-76 22,3 43,9 46,14 3,4 15,13 26,19 11,5 30,30 43,55 46,88 13,217 -65,254 -42,20 -102,19 -139,-4 z m 140,-32 c 59,-47 73,-131 34,-209 -38,-74 -110,-92 -169,-43 -57,48 -73,119 -44,191 32,78 119,108 179,61 z"
       style="fill:#000000"
       id="path9244" />
    <path
       style="display:inline;fill:#1a1a1a"
       d="m 3276,2412 c 9,-2 17,-6 25,-9 7,-5 16,-6 23,-10 l 22,-8 c 11,-3 22,-7 34,-8 l 16,-4 h 64 c 10,2 8,14 5,21 0,11 -11,4 -18,5 l -39,-1 -29,5 -35,7 -27,9 c -7,4 -18,11 -24,3 -4,-7 -11,-6 -17,-10 z"
       id="path9246" />
  </g>
  <rect
     style="fill:none;stroke-width:0.880468"
     id="rect9336"
     width="992.94336"
     height="453.72913"
     x="0"
     y="0" />
</svg>
