<?xml version="1.0" encoding="UTF-8" standalone="no"?>
<svg
   viewBox="0 0 992.94336 453.72913"
   version="1.1"
   id="svg9280"
   sodipodi:docname="wystawy.svg"
   width="992.94336"
   height="453.72913"
   inkscape:version="1.2.1 (9c6d41e4, 2022-07-14)"
   xmlns:inkscape="http://www.inkscape.org/namespaces/inkscape"
   xmlns:sodipodi="http://sodipodi.sourceforge.net/DTD/sodipodi-0.dtd"
   xmlns="http://www.w3.org/2000/svg"
   xmlns:svg="http://www.w3.org/2000/svg">
  <defs
     id="defs9284" />
  <sodipodi:namedview
     id="namedview9282"
     pagecolor="#ffffff"
     bordercolor="#000000"
     borderopacity="0.25"
     inkscape:showpageshadow="2"
     inkscape:pageopacity="0.0"
     inkscape:pagecheckerboard="0"
     inkscape:deskcolor="#d1d1d1"
     showgrid="false"
     inkscape:zoom="0.15207312"
     inkscape:cx="95.348869"
     inkscape:cy="-3.287892"
     inkscape:window-width="1280"
     inkscape:window-height="655"
     inkscape:window-x="0"
     inkscape:window-y="25"
     inkscape:window-maximized="0"
     inkscape:current-layer="svg9280" />
  <rect
     style="display:none;fill:#808080;stroke-width:0.880468"
     id="rect9336"
     width="992.94336"
     height="453.72913"
     x="0"
     y="0" />
  <g
     style="display:inline"
     id="g9278"
     transform="matrix(0.10990507,0,0,0.10990507,-35.848733,-1224.0854)">
    <path
       d="m 3136,14429 c -61,-40 -82,-126 -49,-196 9,-19 20,-34 24,-34 5,0 16,-7 25,-16 9,-9 44,-20 82,-24 36,-5 71,-14 78,-22 7,-7 32,-72 55,-143 42,-131 42,-131 -99,-625 -148,-519 -152,-530 -207,-530 -44,0 -58,-101 -16,-112 9,-3 105,-3 212,-1 l 208,3 c 9,0 12,13 10,46 -3,49 -11,58 -60,69 -21,4 -28,11 -28,28 0,12 35,146 79,297 78,275 78,275 116,155 l 75,-240 c 48,-148 57,-186 53,-206 -4,-19 -44,-39 -76,-39 -37,0 -50,-15 -50,-58 0,-22 3,-44 6,-49 7,-11 377,-11 395,0 15,10 16,79 0,95 -7,7 -22,12 -35,12 -12,0 -33,5 -47,12 -30,13 -42,42 -122,296 l -109,342 -145,455 c -113,359 -126,390 -170,439 -60,66 -145,86 -205,46 z"
       style="fill:#f1ebd7"
       id="path9250" />
    <path
       d="m 4119,13794 c -120,-39 -134,-61 -145,-231 -7,-116 2,-144 46,-144 34,0 44,11 59,66 17,57 85,160 119,178 43,22 96,28 113,14 72,-61 87,-121 48,-198 -27,-52 -63,-79 -156,-114 -136,-52 -212,-135 -238,-256 -28,-138 25,-286 124,-344 68,-39 87,-48 135,-57 62,-12 193,4 247,29 40,20 55,60 69,182 7,67 6,77 -11,93 -31,30 -59,18 -87,-38 -59,-114 -111,-153 -186,-139 -53,9 -85,56 -85,122 0,76 40,112 192,173 105,42 157,83 193,155 28,55 30,67 30,169 0,98 -3,116 -27,167 -31,67 -90,127 -156,159 -61,29 -212,37 -284,14 z"
       style="fill:#ffff00"
       id="path9252" />
    <path
       d="m 5463,13794 c -37,-16 -82,-61 -82,-83 0,-8 -7,-20 -16,-26 -26,-19 -31,-135 -9,-193 20,-51 161,-203 189,-203 8,0 16,-4 18,-8 2,-5 36,-28 76,-52 40,-23 75,-46 78,-51 2,-5 5,-72 6,-151 1,-135 0,-143 -22,-160 -29,-23 -87,-23 -126,1 -34,21 -44,51 -44,131 0,133 -93,212 -173,147 -57,-45 -43,-168 33,-285 30,-48 51,-67 102,-95 87,-48 131,-60 215,-60 126,0 234,70 262,168 7,26 11,166 11,385 0,297 2,349 16,368 19,27 34,28 67,2 33,-27 53,-25 73,5 15,23 15,27 -9,67 -47,80 -94,108 -181,108 -41,0 -62,-6 -92,-26 l -44,-33 -22,-31 c -18,-24 -18,-24 -55,12 -73,71 -189,98 -271,63 z m 228,-163 c 29,-24 36,-73 30,-211 -5,-114 -5,-114 -38,-86 -88,74 -122,235 -61,296 24,24 41,24 69,1 z"
       style="fill:#f5629d"
       id="path9254" />
    <path
       d="m 1943,13789 c -12,-12 -22,-29 -22,-40 a 5903,5903 0 0 1 -150,-425 c -73,-220 -142,-417 -152,-437 -12,-25 -27,-40 -46,-44 -42,-10 -52,-23 -52,-65 0,-32 4,-41 23,-48 12,-4 112,-6 222,-4 195,3 200,4 208,25 14,39 -1,76 -34,83 -55,12 -54,22 21,321 39,153 72,279 74,281 2,2 11,-25 20,-59 l 58,-207 c 45,-162 46,-199 7,-278 -17,-33 -32,-49 -49,-53 -31,-7 -48,-49 -34,-87 10,-28 10,-28 219,-26 210,3 210,3 218,30 12,41 -7,83 -37,83 -52,0 -51,20 23,316 39,152 72,278 74,280 2,3 9,-15 16,-38 l 76,-278 c 60,-217 64,-236 50,-257 a 50,50 0 0 0 -45,-23 c -37,0 -56,-38 -43,-85 9,-30 9,-30 187,-30 196,0 196,0 191,62 -4,43 -12,53 -43,53 -15,0 -39,10 -54,23 -28,23 -24,10 -199,587 -106,345 -113,360 -175,360 -59,0 -67,-15 -158,-287 -48,-142 -90,-263 -94,-270 -4,-7 -26,49 -51,130 -97,315 -121,384 -144,405 a 78,78 0 0 1 -105,2 z"
       style="fill:#7c91cb"
       id="path9256" />
    <path
       d="m 4886,13794 c -51,-20 -103,-69 -127,-122 -26,-58 -30,-123 -32,-469 -1,-332 -2,-337 -60,-332 -31,3 -31,3 -31,-46 0,-48 0,-48 49,-67 63,-23 116,-75 152,-147 35,-71 49,-83 85,-70 46,16 58,38 61,113 3,70 3,70 118,73 76,2 117,7 122,15 10,16 10,108 0,124 -5,8 -47,13 -122,16 -115,3 -115,3 -118,303 -3,331 4,394 44,421 33,21 107,13 138,-16 12,-11 32,-21 43,-21 25,0 63,48 63,79 0,29 -75,102 -135,131 -62,31 -188,38 -250,15 z"
       style="fill:#00c3ff"
       id="path9258" />
    <path
       d="m 7619,14434 c -40,-22 -68,-75 -68,-129 0,-52 23,-106 45,-106 8,0 18,-7 23,-16 6,-10 32,-18 77,-24 37,-5 73,-14 80,-22 7,-7 31,-70 54,-139 40,-125 40,-127 26,-181 -41,-159 -257,-908 -270,-935 -10,-22 -24,-34 -42,-38 -48,-10 -58,-20 -61,-64 -3,-35 0,-42 20,-50 13,-5 114,-6 228,-2 205,6 205,6 208,44 4,45 -11,67 -44,67 -16,0 -28,8 -35,24 -10,21 0,66 61,278 l 80,278 c 7,26 10,16 126,-360 l 50,-158 c 7,-22 -40,-58 -83,-65 -38,-6 -43,-10 -48,-41 -4,-19 -2,-43 4,-54 10,-18 20,-19 199,-17 104,1 194,5 200,9 16,9 15,79 0,94 -7,7 -23,12 -36,12 -26,0 -63,17 -74,34 -8,11 -90,257 -146,436 -159,504 -319,996 -335,1026 -20,39 -75,90 -110,103 -39,15 -97,13 -129,-4 z"
       style="fill:#ff7600"
       id="path9260" />
    <path
       d="m 6433,13786 c -14,-15 -75,-179 -172,-467 -153,-455 -163,-479 -212,-480 -24,0 -35,-28 -28,-75 5,-40 5,-40 220,-37 118,2 216,5 219,7 9,9 8,70 -1,88 -5,9 -19,17 -32,17 -24,0 -36,16 -36,48 -1,30 134,542 142,542 4,0 8,-7 8,-15 0,-8 16,-72 36,-143 78,-274 77,-268 52,-341 -21,-62 -43,-91 -70,-91 -27,0 -43,-42 -32,-82 10,-33 10,-33 222,-33 134,0 212,4 213,10 10,75 0,105 -36,105 -42,0 -43,39 -1,205 78,308 104,400 109,385 l 27,-100 72,-260 c 28,-99 47,-184 43,-197 -3,-14 -16,-25 -33,-29 -65,-14 -63,-12 -60,-67 3,-52 3,-52 178,-53 96,0 181,4 188,9 15,12 16,79 0,95 -7,7 -20,12 -30,12 -11,0 -32,7 -48,15 -33,17 -28,3 -201,568 -112,367 -121,387 -183,387 -56,0 -73,-32 -165,-308 -47,-139 -87,-252 -91,-252 -3,0 -39,109 -79,243 -74,242 -98,300 -127,311 -33,13 -71,5 -92,-17 z"
       style="fill:#00ff07"
       id="path9262" />
    <path
       d="m 3977,13617 c -12,-46 -6,-164 9,-184 12,-16 16,-17 24,-4 7,9 6,17 -1,21 -7,4 -9,39 -6,98 3,66 1,91 -8,91 -6,0 -14,-10 -18,-22 z m 749,-120 c -3,-18 -4,-159 -3,-313 3,-261 4,-280 21,-283 17,-4 18,12 16,312 -1,254 -4,316 -15,316 -7,0 -16,-15 -19,-32 z m 1739,-175 c -3,-16 -10,-41 -15,-57 -13,-40 -11,-56 5,-56 8,0 20,24 30,65 19,78 19,75 1,75 -8,0 -17,-12 -21,-27 z m -2487,-160 c -12,-20 -26,-131 -21,-160 11,-58 30,-39 31,30 0,34 5,79 11,100 8,30 8,37 -3,37 -8,0 -16,-3 -18,-7 z m 3190,-303 c -9,-11 -26,-20 -37,-20 -11,0 -20,-7 -20,-15 0,-24 48,-18 75,10 14,13 25,29 25,35 0,17 -24,11 -43,-10 z m -576,-4 c -7,-9 -22,-16 -32,-16 -25,0 -44,-41 -35,-74 5,-20 13,-26 34,-26 23,1 24,2 10,11 -27,15 -22,48 7,59 26,10 40,31 33,51 -2,7 -8,6 -17,-5 z m -2572,-24 c 22,-31 42,-49 75,-69 82,-49 186,-76 186,-50 0,9 -25,20 -65,30 -68,17 -147,64 -165,97 -6,11 -20,20 -31,20 -20,0 -20,0 0,-28 z m 193,1 c 8,-40 148,-37 148,3 0,11 -6,13 -22,8 -35,-11 -81,-12 -106,-3 -19,8 -23,6 -20,-8 z"
       style="fill:#000500"
       id="path9264" />
    <path
       d="m 3136,14429 c -61,-40 -82,-126 -49,-196 9,-19 20,-34 24,-34 5,0 16,-7 25,-16 9,-9 44,-20 82,-24 36,-5 71,-14 78,-22 7,-7 32,-72 55,-143 42,-131 42,-131 -99,-625 -148,-519 -152,-530 -207,-530 -44,0 -58,-101 -16,-112 9,-3 105,-3 212,-1 l 208,3 c 9,0 12,13 10,46 -3,49 -11,58 -60,69 -21,4 -28,11 -28,28 0,12 35,146 79,297 78,275 78,275 116,155 l 75,-240 c 48,-148 57,-186 53,-206 -4,-19 -44,-39 -76,-39 -37,0 -50,-15 -50,-58 0,-22 3,-44 6,-49 7,-11 377,-11 395,0 15,10 16,79 0,95 -7,7 -22,12 -35,12 -12,0 -33,5 -47,12 -30,13 -42,42 -122,296 l -109,342 -145,455 c -113,359 -126,390 -170,439 -60,66 -145,86 -205,46 z m 141,-29 c 45,-28 81,-79 103,-147 a 195061,195061 0 0 0 351,-1099 l 70,-217 c 25,-79 58,-116 111,-124 34,-6 39,-10 39,-34 0,-27 0,-27 -177,-26 -136,1 -178,4 -177,14 l 3,27 c 0,8 11,15 24,15 12,0 38,8 56,18 54,26 56,56 17,181 -152,481 -153,482 -183,463 -13,-8 -173,-559 -173,-593 1,-34 22,-58 59,-65 25,-5 31,-11 31,-33 0,-27 0,-27 -197,-27 -198,1 -198,1 -198,25 0,19 8,27 34,36 19,6 43,23 54,37 28,37 299,995 292,1033 -3,17 -24,84 -48,149 -47,134 -66,154 -144,155 -83,2 -123,41 -123,120 0,31 7,49 31,76 26,29 38,35 73,35 23,0 55,-9 72,-19 z m 4342,34 c -40,-22 -68,-75 -68,-129 0,-52 23,-106 45,-106 8,0 18,-7 23,-16 6,-10 32,-18 77,-24 37,-5 73,-14 80,-22 7,-7 31,-70 54,-139 40,-125 40,-127 26,-181 -41,-159 -257,-908 -270,-935 -10,-22 -24,-34 -42,-38 -48,-10 -58,-20 -61,-64 -3,-35 0,-42 20,-50 13,-5 114,-6 228,-2 205,6 205,6 208,44 4,45 -11,67 -44,67 -16,0 -28,8 -35,24 -10,21 0,66 61,278 l 80,278 c 7,26 10,16 126,-360 l 50,-158 c 7,-22 -40,-58 -83,-65 -38,-6 -43,-10 -48,-41 -4,-19 -2,-43 4,-54 10,-18 20,-19 199,-17 104,1 194,5 200,9 16,9 15,79 0,94 -7,7 -23,12 -36,12 -26,0 -63,17 -74,34 -8,11 -90,257 -146,436 -159,504 -319,996 -335,1026 -20,39 -75,90 -110,103 -39,15 -97,13 -129,-4 z m 143,-38 c 67,-45 64,-37 309,-807 l 207,-644 c 29,-91 58,-123 115,-133 35,-5 39,-8 36,-32 -3,-26 -3,-26 -178,-26 -175,0 -175,0 -175,24 0,20 7,26 47,36 26,6 54,17 62,25 26,21 19,87 -23,215 l -85,266 c -44,140 -59,166 -84,150 -13,-8 -172,-556 -172,-592 1,-34 22,-58 59,-65 25,-5 31,-11 31,-33 0,-27 0,-27 -200,-27 -201,-1 -201,-1 -198,24 2,19 12,28 37,37 64,21 53,-10 240,652 50,177 91,329 91,337 0,9 5,25 12,35 10,16 4,45 -36,165 -53,166 -60,174 -153,185 -70,9 -101,24 -113,57 -23,59 -6,125 40,161 25,21 93,15 131,-10 z m -1832,-587 c -59,-7 -104,-36 -144,-93 -15,-21 -15,-21 -52,15 -98,95 -251,105 -328,22 -14,-15 -25,-34 -25,-42 0,-8 -7,-20 -16,-26 -26,-19 -31,-135 -9,-193 20,-51 161,-203 189,-203 8,0 16,-4 18,-8 2,-5 36,-28 76,-52 40,-23 74,-46 77,-50 2,-3 5,-71 6,-150 2,-138 1,-144 -21,-162 -29,-23 -87,-23 -126,1 -34,21 -44,51 -44,131 0,133 -93,212 -173,147 -57,-45 -43,-168 33,-285 30,-48 51,-67 102,-95 87,-48 131,-60 215,-60 126,0 234,70 262,168 7,26 11,166 11,385 0,297 2,349 16,368 19,27 34,28 67,2 33,-27 53,-25 73,5 15,23 15,27 -9,67 -48,82 -115,119 -198,108 z m -282,-52 c 25,-12 58,-37 74,-55 15,-18 35,-33 44,-33 9,0 40,25 70,55 53,54 54,55 113,55 49,0 65,-5 98,-29 38,-28 83,-95 71,-107 -3,-4 -18,3 -33,15 -27,21 -70,27 -89,13 -39,-29 -40,-34 -45,-421 -5,-366 -6,-377 -27,-410 -87,-136 -325,-142 -466,-11 -51,46 -95,135 -104,210 -5,44 -3,54 17,75 62,66 130,0 130,-125 0,-113 47,-170 142,-170 38,0 54,6 78,28 29,27 29,27 32,178 3,172 3,173 -82,222 -266,151 -351,286 -275,438 45,91 152,122 252,72 z"
       style="fill:#000000"
       id="path9266" />
    <path
       d="m 5618,13672 c -46,-13 -70,-134 -43,-225 24,-82 128,-191 163,-170 13,8 18,95 15,232 -2,87 -5,98 -30,127 -27,33 -68,47 -105,36 z m 73,-41 c 29,-24 36,-73 30,-211 -5,-114 -5,-114 -38,-86 -88,74 -122,235 -61,296 24,24 41,24 69,1 z m -3748,158 c -12,-12 -22,-29 -22,-40 a 5903,5903 0 0 1 -150,-425 c -73,-220 -142,-417 -152,-437 -12,-25 -27,-40 -46,-44 -42,-10 -52,-23 -52,-65 0,-32 4,-41 23,-48 12,-4 112,-6 222,-4 195,3 200,4 208,25 14,39 -1,76 -34,83 -55,12 -54,22 21,321 39,153 72,279 74,281 2,2 11,-25 20,-59 l 58,-207 c 45,-162 46,-199 7,-278 -17,-33 -32,-49 -49,-53 -31,-7 -48,-49 -34,-87 10,-28 10,-28 219,-26 210,3 210,3 218,30 12,41 -7,83 -37,83 -52,0 -51,20 23,316 39,152 72,278 74,280 2,3 9,-15 16,-38 l 76,-278 c 60,-217 64,-236 50,-257 a 50,50 0 0 0 -45,-23 c -37,0 -56,-38 -43,-85 9,-30 9,-30 187,-30 196,0 196,0 191,62 -4,43 -12,53 -43,53 -15,0 -39,10 -54,23 -28,23 -24,10 -199,587 -106,345 -113,360 -175,360 -59,0 -67,-15 -158,-287 -48,-142 -90,-263 -94,-270 -4,-7 -26,49 -51,130 -97,315 -121,384 -144,405 a 78,78 0 0 1 -105,2 z m 91,-27 c 8,-10 29,-63 46,-118 l 70,-235 c 59,-194 70,-222 90,-218 11,2 42,80 111,283 52,154 99,286 103,293 14,21 65,14 82,-11 8,-12 40,-106 71,-207 l 94,-310 75,-242 c 40,-132 67,-172 123,-185 29,-7 38,-14 40,-34 3,-25 3,-25 -163,-25 -166,-1 -166,-1 -163,25 2,17 10,27 23,29 36,6 64,24 74,51 9,21 5,50 -23,151 -132,485 -138,502 -168,472 -5,-5 -44,-144 -85,-307 -83,-330 -83,-333 -17,-361 27,-12 35,-20 32,-37 -3,-22 -5,-22 -195,-23 -193,-1 -193,-1 -193,25 0,19 9,30 33,41 39,18 78,91 85,160 4,44 -38,224 -94,399 -8,25 -14,52 -14,61 0,14 -32,50 -45,50 -3,0 -10,-11 -15,-25 -10,-25 -122,-465 -140,-548 -13,-59 -2,-83 46,-103 27,-11 35,-20 32,-36 -3,-21 -7,-22 -200,-23 -198,-2 -198,-2 -198,26 0,23 5,29 21,29 53,0 69,36 223,496 80,242 154,448 163,457 22,22 56,22 76,0 z m 2085,32 c -80,-26 -117,-53 -128,-93 -5,-21 -8,-91 -6,-157 3,-120 3,-120 33,-123 34,-3 45,8 61,64 17,57 85,160 119,178 43,22 96,28 113,14 72,-61 87,-121 48,-198 -27,-52 -63,-79 -156,-114 -118,-46 -214,-137 -228,-218 -4,-25 -3,-29 5,-18 6,8 11,11 11,5 0,-5 11,12 25,39 42,83 84,117 215,171 125,52 168,100 175,198 5,60 -21,116 -68,151 -41,30 -105,27 -157,-8 a 434,434 0 0 1 -132,-193 c -8,-33 -15,-43 -31,-43 -19,0 -20,4 -13,108 9,159 10,160 75,191 44,20 75,26 146,29 122,5 185,-18 253,-93 63,-69 82,-123 82,-235 0,-76 -4,-94 -30,-147 -34,-68 -99,-120 -191,-152 -145,-50 -199,-103 -199,-197 0,-70 53,-144 104,-144 18,0 16,5 -16,33 -45,40 -58,65 -58,115 0,76 40,112 192,173 105,42 157,83 193,155 28,55 30,67 30,169 0,98 -3,116 -27,167 -31,67 -90,127 -156,159 -61,29 -212,37 -284,14 z m 767,0 c -106,-41 -171,-171 -148,-300 7,-40 7,-40 14,-10 3,17 7,47 8,67 2,54 29,129 59,162 90,97 279,87 385,-19 40,-42 44,-52 24,-79 -13,-18 -16,-17 -63,8 -107,57 -186,22 -204,-89 -12,-71 -13,-645 -2,-662 5,-8 46,-13 122,-15 115,-3 115,-3 118,-50 3,-48 3,-48 -103,-48 -142,0 -145,-2 -145,-95 0,-72 -1,-75 -29,-90 -30,-15 -30,-15 -54,39 -34,73 -97,139 -157,165 -48,21 -50,23 -50,62 0,28 -4,39 -12,37 -8,-3 -13,-23 -13,-52 0,-48 0,-48 49,-67 63,-23 116,-75 152,-147 35,-71 49,-83 85,-70 46,16 58,38 61,113 3,70 3,70 118,73 76,2 117,7 122,15 10,16 10,108 0,124 -5,8 -47,13 -122,16 -115,3 -115,3 -118,303 -3,331 4,394 44,421 33,21 107,13 138,-16 12,-11 32,-21 43,-21 25,0 63,48 63,79 0,29 -75,102 -135,131 -62,31 -188,38 -250,15 z m 1547,-8 c -14,-15 -75,-179 -172,-467 -153,-455 -163,-479 -212,-480 -24,0 -35,-28 -28,-75 5,-40 5,-40 220,-37 118,2 216,5 219,7 9,9 8,70 -1,88 -5,9 -20,17 -33,17 -44,0 -43,39 4,222 34,132 41,172 34,195 -10,28 -10,28 -21,-17 -5,-25 -27,-108 -46,-185 -21,-79 -35,-157 -34,-180 3,-35 8,-42 41,-58 27,-14 37,-25 37,-42 0,-24 0,-24 -197,-22 -196,2 -198,2 -201,24 -3,17 4,25 30,36 18,8 41,23 51,34 10,11 83,215 162,453 79,238 151,443 160,456 21,32 70,33 86,2 6,-12 49,-143 94,-291 46,-148 86,-271 90,-275 20,-21 46,37 129,285 50,149 97,278 105,287 9,11 26,16 44,14 38,-4 40,-10 137,-328 125,-412 131,-434 158,-515 22,-65 33,-84 61,-102 19,-13 45,-23 57,-23 20,0 24,-5 24,-28 0,-28 0,-28 -160,-29 -160,0 -160,0 -160,29 0,24 4,28 27,28 25,0 26,1 11,16 -11,11 -25,15 -43,10 -24,-6 -26,-10 -23,-59 3,-52 3,-52 118,-49 64,2 141,-1 173,-6 67,-11 87,3 87,59 0,39 -15,59 -42,59 -11,0 -32,7 -48,15 -33,17 -28,3 -201,568 -112,367 -121,387 -183,387 -56,0 -73,-32 -165,-308 -47,-139 -87,-252 -91,-252 -3,0 -39,109 -79,243 -74,242 -98,300 -127,311 -33,13 -71,5 -92,-17 z"
       style="fill:#000000"
       id="path9268" />
    <path
       d="m 6515,13475 c -19,-21 -50,-149 -44,-181 7,-38 13,-28 35,63 17,65 35,95 35,57 0,-8 16,-72 36,-143 54,-190 70,-255 68,-278 -2,-34 -34,-122 -50,-134 -7,-7 -14,-19 -14,-27 0,-8 -5,-11 -12,-7 -10,5 -10,4 -2,-5 19,-21 50,7 79,70 42,94 41,97 -25,339 -34,124 -65,231 -69,239 -10,20 -24,23 -37,7 z"
       style="fill:#000000"
       id="path9270" />
    <path
       d="m 7010,13469 c -22,-28 -151,-551 -147,-597 3,-33 8,-41 41,-56 27,-14 37,-25 37,-42 0,-24 0,-24 -190,-23 -105,1 -193,5 -196,10 -3,4 -12,8 -19,8 -11,0 -12,-6 -6,-22 8,-23 10,-23 220,-23 133,0 211,4 212,10 10,75 0,105 -36,105 -42,0 -43,39 -1,205 78,308 104,400 109,385 l 27,-100 72,-260 c 27,-96 47,-184 44,-195 -3,-11 -1,-26 3,-34 7,-11 11,-9 20,7 16,31 15,40 -34,215 l -75,272 c -46,165 -51,173 -81,135 z m -2547,-452 a 429,429 0 0 0 -133,-182 c -49,-33 -47,-40 5,-24 43,14 98,75 130,146 17,38 38,53 49,35 6,-11 -10,-133 -23,-182 -9,-35 -16,-41 -58,-55 -26,-8 -80,-18 -119,-22 -69,-6 -91,-18 -58,-30 23,-9 176,16 215,34 40,20 55,60 69,182 7,66 6,77 -10,93 -21,20 -50,22 -67,5 z m -489,-15 c -20,-7 -15,-53 12,-111 22,-48 48,-73 62,-59 3,3 -4,18 -14,34 -23,34 -41,79 -45,114 -2,15 -8,24 -15,22 z"
       style="fill:#000000"
       id="path9272" />
    <path
       style="display:inline;fill:#1a1a1a"
       d="m 4652,12863 c 13,2 27,-3 39,3 12,3 24,-3 36,-1 4,4 10,5 15,3 5,-2 13,-2 13,5 l 1,27 v 31 c -5,0 -2,7 -6,9 1,5 -3,9 -6,11 1,5 -4,5 -6,8 -5,4 -13,-1 -9,-7 2,-5 -3,-9 -3,-14 -5,0 1,-9 -4,-11 -1,-5 -4,-10 -3,-15 -2,-3 -2,-8 -2,-11 -5,-3 0,-9 -6,-11 3,-4 2,-12 -5,-12 -4,-2 -8,-1 -10,2 -6,2 -13,0 -20,0 -6,-2 -10,5 -16,3 -6,0 -13,1 -16,-5 -1,-5 4,-9 7,-13 z"
       id="path9274" />
    <path
       style="display:inline;fill:#1a1a1a"
       d="m 4662,12884 c 4,1 9,-2 13,1 h 7 l 11,1 12,1 c 2,1 6,1 7,4 1,4 5,6 5,10 l 5,21 2,11 c 0,4 -1,7 1,10 -2,3 1,6 1,9 4,1 2,-4 6,-3 2,-4 7,-4 9,-9 1,-4 -3,-8 -2,-13 0,-10 -1,-20 -3,-29 -1,-2 0,-7 -1,-6 l -2,-12 c -1,-3 -3,-6 -7,-7 l -12,-1 c -5,1 -10,-1 -15,-1 l -25,-1 c -3,0 -9,0 -8,4 -2,0 -1,4 -2,1 -1,4 -3,5 -2,9 z"
       id="path9276" />
  </g>
</svg>
